<svg width="1400" height="584" viewBox="0 0 1400 584" fill="none" xmlns="http://www.w3.org/2000/svg">
<rect width="1400" height="584" fill="white"/>
<path d="M591.178 6.68718C581.452 9.04349 571.84 11.9136 562.442 15.1203C485.658 41.2789 396.419 96.2005 354.661 168.431C305.949 252.691 285.238 368.31 273.005 463.537C270.427 483.584 268.496 504.463 275.069 523.57C282.802 546.052 301.848 563.485 323.63 572.999C345.413 582.513 369.756 584.807 393.505 583.771C462.263 580.768 526.743 551.376 593.605 535.033C713.689 505.685 839.379 518.813 962.988 519.415C1003.22 519.61 1043.64 518.441 1083.25 511.354C1100.07 508.342 1117.31 503.984 1130.67 493.319C1153.38 475.195 1159.71 442.091 1153.04 413.807C1146.36 385.522 1128.96 361.082 1110.82 338.378C1092.69 315.674 1073.2 293.484 1061.11 267.06C1033.97 207.709 1044.74 129.41 996.712 85.225C968.622 59.3853 927.759 53.4059 889.597 52.901C851.435 52.3961 812.335 56.0457 775.847 44.8399C743.949 35.0426 716.098 14.4293 683.969 5.40272C653.798 -3.07469 621.89 -0.753807 591.178 6.68718Z" fill="#EBF0F7"/>
<path d="M593.601 535.024C713.685 505.676 839.375 518.804 962.984 519.406C1003.22 519.601 1043.64 518.432 1083.24 511.345C1100.07 508.334 1117.31 503.975 1130.66 493.31C1153.38 475.186 1159.71 442.082 1153.04 413.798C1146.36 385.513 1128.95 361.073 1110.82 338.369C1092.69 315.665 1073.2 293.475 1061.11 267.051C1056.21 256.341 1052.55 245.011 1049.56 233.38L1040.02 242.921V187.273C1037.89 175.881 1035.69 164.587 1032.93 153.655H1008.13V97.7064C1004.73 93.3038 1000.95 89.1227 996.708 85.2161C977.68 67.7032 952.771 59.3233 926.825 55.5762V70.7505H898.133V148.863H875.819V273.739H743.502V340.158H716.404V18.141C705.872 13.1183 695.18 8.55628 683.965 5.40272C666.479 0.486351 648.408 -0.789247 630.319 0.450918V158.439H360.805C358.652 161.734 356.606 165.065 354.657 168.44C305.945 252.7 285.235 368.319 273.001 463.546C270.423 483.592 268.492 504.471 275.065 523.579C282.799 546.061 301.844 563.494 323.627 573.008C331.059 576.259 338.801 578.642 346.702 580.361H426.826C483.36 571.511 537.652 548.701 593.601 535.024Z" fill="#EFF3F9"/>
<path d="M674.06 481.289L841.421 343.56C886.554 306.417 873.576 234.178 818.336 215.061C793.825 206.584 766.683 211.394 746.583 227.791L522.938 410.157L674.06 481.289Z" fill="url(#paint0_linear_134_717)"/>
<path d="M499.988 377.629H458.186C455.838 377.629 453.934 379.534 453.934 381.881C453.934 384.149 455.767 385.983 458.035 385.983H500.121C502.389 385.983 504.222 384.149 504.222 381.881C504.231 379.534 502.335 377.629 499.988 377.629Z" fill="#EBF0F7" stroke="#C8D4E8" stroke-miterlimit="10" stroke-linecap="round" stroke-linejoin="round"/>
<path d="M479.082 329.812L460.551 377.629H497.614L479.082 329.812Z" fill="#EBF0F7" stroke="#C8D4E8" stroke-miterlimit="10" stroke-linecap="round" stroke-linejoin="round"/>
<path d="M479.08 332.842C480.132 332.842 480.985 331.989 480.985 330.937C480.985 329.885 480.132 329.032 479.08 329.032C478.028 329.032 477.176 329.885 477.176 330.937C477.176 331.989 478.028 332.842 479.08 332.842Z" fill="#EBF0F7" stroke="#C8D4E8" stroke-miterlimit="10" stroke-linecap="round" stroke-linejoin="round"/>
<path d="M471.729 348.786H486.434L491.66 362.26H466.512L471.729 348.786Z" fill="#CFD7E8" stroke="#C8D4E8" stroke-miterlimit="10" stroke-linecap="round" stroke-linejoin="round"/>
<path d="M775.968 151.361C726.105 139.172 675.444 174.96 665.257 194.723C656.293 212.112 552.934 365.679 528.228 402.326L513.195 400.413L522.939 410.157L674.062 481.289C674.062 481.289 795.864 288.506 814.732 248.608C833.601 208.71 825.832 163.55 775.968 151.361Z" fill="#CFD7E8" stroke="#C8D4E8" stroke-miterlimit="10" stroke-linecap="round" stroke-linejoin="round"/>
<path d="M513.195 400.413C513.195 400.413 645.317 204.733 655.504 184.979C665.691 165.224 716.361 129.428 766.215 141.617C816.079 153.806 823.856 198.966 804.979 238.864C786.102 278.761 664.309 471.545 664.309 471.545L513.195 400.413Z" fill="white" stroke="#C8D4E8" stroke-miterlimit="10" stroke-linejoin="round"/>
<path d="M776.961 225.603C769.254 241.902 741.067 288.94 711.073 337.811C708.672 341.726 706.254 345.659 703.835 349.584C702.232 352.188 700.629 354.784 699.025 357.379C682.319 384.45 665.816 410.892 652.696 431.807L609.68 411.565L559.117 387.763C572.697 367.584 590.493 341.089 608.369 314.292C642.66 262.879 677.261 210.375 683.027 199.267C684.179 197.309 687.226 194.085 691.717 190.479C702.897 181.497 723.067 170.15 745.328 170.15C750.005 170.15 754.549 170.681 758.863 171.735C775.632 175.837 779.494 183.933 780.761 186.591C785.367 196.255 783.941 210.845 776.961 225.603Z" fill="#CFD7E8" stroke="#C8D4E8" stroke-miterlimit="10" stroke-linecap="round" stroke-linejoin="round"/>
<path d="M635.852 360.612H593.332V403.132H635.852V360.612Z" stroke="#C8D4E8" stroke-miterlimit="10" stroke-linecap="round" stroke-linejoin="round"/>
<path d="M635.852 360.612L593.332 403.132" stroke="#C8D4E8" stroke-miterlimit="10" stroke-linecap="round" stroke-linejoin="round"/>
<path d="M593.332 360.612L635.852 403.132" stroke="#C8D4E8" stroke-miterlimit="10" stroke-linecap="round" stroke-linejoin="round"/>
<path d="M635.852 318.093H593.332V360.613H635.852V318.093Z" stroke="#C8D4E8" stroke-miterlimit="10" stroke-linecap="round" stroke-linejoin="round"/>
<path d="M635.852 318.093L593.332 360.613" stroke="#C8D4E8" stroke-miterlimit="10" stroke-linecap="round" stroke-linejoin="round"/>
<path d="M593.332 318.093L635.852 360.613" stroke="#C8D4E8" stroke-miterlimit="10" stroke-linecap="round" stroke-linejoin="round"/>
<path d="M635.852 275.573H593.332V318.092H635.852V275.573Z" stroke="#C8D4E8" stroke-miterlimit="10" stroke-linecap="round" stroke-linejoin="round"/>
<path d="M635.852 275.573L593.332 318.092" stroke="#C8D4E8" stroke-miterlimit="10" stroke-linecap="round" stroke-linejoin="round"/>
<path d="M593.332 275.573L635.852 318.092" stroke="#C8D4E8" stroke-miterlimit="10" stroke-linecap="round" stroke-linejoin="round"/>
<path d="M635.852 233.053H593.332V275.573H635.852V233.053Z" stroke="#C8D4E8" stroke-miterlimit="10" stroke-linecap="round" stroke-linejoin="round"/>
<path d="M635.852 233.053L593.332 275.573" stroke="#C8D4E8" stroke-miterlimit="10" stroke-linecap="round" stroke-linejoin="round"/>
<path d="M593.332 233.053L635.852 275.573" stroke="#C8D4E8" stroke-miterlimit="10" stroke-linecap="round" stroke-linejoin="round"/>
<path d="M635.852 190.533H593.332V233.053H635.852V190.533Z" stroke="#C8D4E8" stroke-miterlimit="10" stroke-linecap="round" stroke-linejoin="round"/>
<path d="M635.852 190.533L593.332 233.053" stroke="#C8D4E8" stroke-miterlimit="10" stroke-linecap="round" stroke-linejoin="round"/>
<path d="M593.332 190.533L635.852 233.053" stroke="#C8D4E8" stroke-miterlimit="10" stroke-linecap="round" stroke-linejoin="round"/>
<path d="M635.852 148.013H593.332V190.533H635.852V148.013Z" stroke="#C8D4E8" stroke-miterlimit="10" stroke-linecap="round" stroke-linejoin="round"/>
<path d="M635.852 148.013L593.332 190.533" stroke="#C8D4E8" stroke-miterlimit="10" stroke-linecap="round" stroke-linejoin="round"/>
<path d="M593.332 148.013L635.852 190.533" stroke="#C8D4E8" stroke-miterlimit="10" stroke-linecap="round" stroke-linejoin="round"/>
<path d="M635.852 105.493H593.332V148.013H635.852V105.493Z" stroke="#C8D4E8" stroke-miterlimit="10" stroke-linecap="round" stroke-linejoin="round"/>
<path d="M635.852 105.493L593.332 148.013" stroke="#C8D4E8" stroke-miterlimit="10" stroke-linecap="round" stroke-linejoin="round"/>
<path d="M593.332 105.493L635.852 148.013" stroke="#C8D4E8" stroke-miterlimit="10" stroke-linecap="round" stroke-linejoin="round"/>
<path d="M635.852 62.973H593.332V105.493H635.852V62.973Z" stroke="#C8D4E8" stroke-miterlimit="10" stroke-linecap="round" stroke-linejoin="round"/>
<path d="M635.852 62.973L593.332 105.493" stroke="#C8D4E8" stroke-miterlimit="10" stroke-linecap="round" stroke-linejoin="round"/>
<path d="M593.332 62.973L635.852 105.493" stroke="#C8D4E8" stroke-miterlimit="10" stroke-linecap="round" stroke-linejoin="round"/>
<path d="M678.368 62.973H635.848V105.493H678.368V62.973Z" stroke="#C8D4E8" stroke-miterlimit="10" stroke-linecap="round" stroke-linejoin="round"/>
<path d="M678.368 62.973L635.848 105.493" stroke="#C8D4E8" stroke-miterlimit="10" stroke-linecap="round" stroke-linejoin="round"/>
<path d="M635.848 62.973L678.368 105.493" stroke="#C8D4E8" stroke-miterlimit="10" stroke-linecap="round" stroke-linejoin="round"/>
<path d="M593.329 62.973H550.809V105.493H593.329V62.973Z" stroke="#C8D4E8" stroke-miterlimit="10" stroke-linecap="round" stroke-linejoin="round"/>
<path d="M593.329 62.973L550.809 105.493" stroke="#C8D4E8" stroke-miterlimit="10" stroke-linecap="round" stroke-linejoin="round"/>
<path d="M550.809 62.973L593.329 105.493" stroke="#C8D4E8" stroke-miterlimit="10" stroke-linecap="round" stroke-linejoin="round"/>
<path d="M550.809 62.973H508.289V105.493H550.809V62.973Z" stroke="#C8D4E8" stroke-miterlimit="10" stroke-linecap="round" stroke-linejoin="round"/>
<path d="M550.809 62.973L508.289 105.493" stroke="#C8D4E8" stroke-miterlimit="10" stroke-linecap="round" stroke-linejoin="round"/>
<path d="M508.289 62.973L550.809 105.493" stroke="#C8D4E8" stroke-miterlimit="10" stroke-linecap="round" stroke-linejoin="round"/>
<path d="M508.289 62.973H465.77V105.493H508.289V62.973Z" stroke="#C8D4E8" stroke-miterlimit="10" stroke-linecap="round" stroke-linejoin="round"/>
<path d="M508.289 62.973L465.77 105.493" stroke="#C8D4E8" stroke-miterlimit="10" stroke-linecap="round" stroke-linejoin="round"/>
<path d="M465.77 62.973L508.289 105.493" stroke="#C8D4E8" stroke-miterlimit="10" stroke-linecap="round" stroke-linejoin="round"/>
<path d="M465.77 105.493H423.25L465.77 62.973V105.493Z" stroke="#C8D4E8" stroke-miterlimit="10" stroke-linecap="round" stroke-linejoin="round"/>
<path d="M635.852 20.4531H593.332V62.973H635.852V20.4531Z" stroke="#C8D4E8" stroke-miterlimit="10" stroke-linecap="round" stroke-linejoin="round"/>
<path d="M635.852 20.4531L593.332 62.973" stroke="#C8D4E8" stroke-miterlimit="10" stroke-linecap="round" stroke-linejoin="round"/>
<path d="M593.332 20.4531L635.852 62.973" stroke="#C8D4E8" stroke-miterlimit="10" stroke-linecap="round" stroke-linejoin="round"/>
<path d="M439.195 105.493V185.218" stroke="#C8D4E8" stroke-miterlimit="10" stroke-linecap="round" stroke-linejoin="round"/>
<path d="M458.142 118.78H420.247C419.458 118.78 418.82 118.143 418.82 117.354V114.006C418.82 113.217 419.458 112.58 420.247 112.58H458.142C458.931 112.58 459.569 113.217 459.569 114.006V117.354C459.569 118.134 458.922 118.78 458.142 118.78Z" fill="#CFD7E8" stroke="#C8D4E8" stroke-miterlimit="10" stroke-linecap="round" stroke-linejoin="round"/>
<path d="M703.838 349.584C685.519 379.33 667.076 408.89 652.699 431.807L609.683 411.565C599.585 382.732 604.696 350.682 604.696 350.682L703.838 349.584Z" fill="#EBF0F7"/>
<path d="M583.945 275.581C583.945 275.581 594.779 317.623 607.296 327.243C619.813 336.863 615.118 304.637 615.118 304.637L617.439 277.353L583.945 275.581Z" fill="white" stroke="#C8D4E8" stroke-miterlimit="10" stroke-linejoin="round"/>
<path d="M729.981 262.887C729.981 262.887 715.267 298.489 704.247 309.899C693.228 321.308 697.4 282.686 699.34 277.327C701.28 271.967 713.194 251.07 713.779 251.115C714.381 251.159 729.981 262.887 729.981 262.887Z" fill="white" stroke="#C8D4E8" stroke-miterlimit="10" stroke-linejoin="round"/>
<path d="M734.839 256.093C731.633 270.931 716.219 273.101 716.219 273.101C713.367 281.454 706.989 282.376 706.014 312.361C705.563 326.215 708.158 333.736 711.073 337.811C708.672 341.726 706.254 345.659 703.835 349.584C702.232 352.188 700.629 354.784 699.025 357.379C641.092 369.524 600.592 352.073 600.592 352.073C605.977 342.559 607.714 321.618 607.714 321.618L608.369 314.292L611.284 281.534C590.272 281.702 577.746 273.473 575.912 267.6C574.079 261.727 574.725 221.448 579.456 213.423C584.186 205.406 603.922 201.136 603.922 201.136L673.088 192.349C673.088 192.349 681.486 190.169 691.717 190.479C700.682 190.745 711.055 192.916 718.434 200.126C734.246 215.575 738.037 241.247 734.839 256.093Z" fill="#3457E5"/>
<path d="M650.899 265.766C648.587 264.544 645.894 264.34 643.281 264.26C631.544 263.924 619.735 265.793 608.68 269.762C603.472 271.622 598.236 273.987 592.718 273.836C587.792 273.703 583.115 271.56 578.969 268.902C578.686 268.725 578.341 268.486 577.942 268.238C577.304 267.83 576.542 267.37 575.754 266.989C575.807 267.219 575.86 267.432 575.913 267.6C577.747 273.473 590.273 281.703 611.285 281.534L610.399 291.518C610.647 291.42 610.886 291.296 611.09 291.11C611.958 290.339 612.02 289.028 612.02 287.868C612.011 284.635 612.002 281.41 611.993 278.177C615.191 278.212 616.352 282.411 616.245 285.609C615.802 299.96 609.265 313.761 609.956 328.102C610.195 333.125 611.639 338.564 615.758 341.443C621.02 345.11 628.824 342.825 632.863 337.847C636.903 332.868 637.877 326.047 637.603 319.643C637.328 313.238 635.955 306.896 635.973 300.482C635.973 298.604 636.123 296.638 637.133 295.061C638.648 292.669 641.633 291.792 644.255 290.703C649.242 288.639 653.822 284.936 655.612 279.842C657.401 274.766 655.674 268.291 650.899 265.766Z" fill="#0539DB"/>
<path d="M679.065 211.686C679.065 211.686 684.097 238.545 672.466 254.082C660.835 269.62 638.795 265.572 638.795 265.572C638.795 265.572 623.665 238.571 623.869 237.73C624.073 236.888 641.285 222.166 642.25 221.98C643.216 221.794 679.065 211.686 679.065 211.686Z" fill="#0539DB"/>
<path d="M674.931 220.102C674.931 220.943 676.658 250.946 659.933 258.857C643.209 266.767 627.521 246.73 629.567 236.676C631.622 226.63 674.931 220.102 674.931 220.102Z" fill="#292C38"/>
<path d="M576.439 133.459C576.439 133.459 547.88 129.889 546.285 141.617C544.691 153.345 552.708 164.418 568.635 166.854C568.635 166.854 562.921 192.349 594.997 185.696C594.997 185.696 598.727 196.751 599.612 198.523C599.612 198.523 601.526 189.585 613.617 185.696C625.7 181.807 667.077 189.682 678.469 198.177C678.469 198.177 689.48 191.41 693.121 176.634C696.753 161.858 695.814 158.749 695.814 158.749C695.814 158.749 704.265 157.73 704.619 153.168C704.619 153.168 702.271 151.485 699.348 151.893C699.348 151.893 700.615 149.528 698.941 147.641C698.941 147.641 696.035 148.155 695.557 150.307C695.557 150.307 691.004 138.269 683.811 136.639C676.618 135.009 673.721 141.263 673.721 141.263C673.721 141.263 662.551 112.181 641.043 109.497C619.544 106.813 620.429 123.041 620.429 123.041C620.429 123.041 603.794 105.537 585.058 115.875C575.925 120.906 576.439 133.459 576.439 133.459Z" fill="#292C38"/>
<path d="M603.93 190.32C603.93 190.32 611.867 232.131 641.976 244.081C672.086 256.022 682.778 211.669 682.778 206.15C682.778 202.483 689.005 202.695 690.909 198.904C692.814 195.112 695.303 188.894 690.909 184.438C686.516 179.982 680.519 181.896 679.066 187.654C677.613 193.412 678.472 198.177 678.472 198.177C678.472 198.177 666.443 189.913 669.26 172.86C669.26 172.86 651.472 190.409 613.771 172.86C613.771 172.86 614.639 183.96 612.655 186.998C610.68 190.045 603.93 190.32 603.93 190.32Z" fill="white" stroke="#C8D4E8" stroke-miterlimit="10" stroke-linejoin="round"/>
<path d="M600.804 204.609L597.615 196.326C597.615 196.326 587.446 216.762 597.021 230.448C606.597 244.134 615.004 246.198 623.57 246.438L600.804 204.609Z" fill="#0539DB"/>
<path d="M597.02 200.33C597.02 200.33 596.719 228.482 618.537 246.119L635.615 244.09C635.615 244.09 655.68 235.108 654.971 218.773C654.262 202.438 652.225 196.034 638.796 186.732C625.375 177.414 604.027 184.234 597.02 200.33Z" fill="white" stroke="#C8D4E8" stroke-miterlimit="10" stroke-linejoin="round"/>
<path d="M623.854 218.374C625.727 218.374 627.246 216.855 627.246 214.982C627.246 213.108 625.727 211.589 623.854 211.589C621.98 211.589 620.461 213.108 620.461 214.982C620.461 216.855 621.98 218.374 623.854 218.374Z" fill="#DDE4F1"/>
<path d="M623.856 231.759C633.122 231.759 640.633 224.248 640.633 214.982C640.633 205.716 633.122 198.204 623.856 198.204C614.59 198.204 607.078 205.716 607.078 214.982C607.078 224.248 614.59 231.759 623.856 231.759Z" stroke="#C8D4E8" stroke-miterlimit="10" stroke-linejoin="round"/>
<path d="M734.838 256.093C735.13 254.738 735.361 253.285 735.538 251.77C732.907 267.822 721.116 268.442 721.116 268.442C723.295 260.54 718.902 255.801 718.902 255.801C718.902 255.801 719.628 266.404 716.227 273.11C716.218 273.101 731.631 270.931 734.838 256.093Z" fill="#0539DB"/>
<path d="M628.623 250.034C619.277 251.699 608.798 257.953 607.38 267.768C605.963 277.583 608.24 284.891 606.636 288.754C605.033 292.616 596.75 315.497 607.947 330.095C619.153 344.694 626.514 339.786 631.785 330.937C637.056 322.088 630.793 296.142 625.079 288.745C625.079 288.745 647.163 289.064 650.715 281.437C652.398 277.831 652.398 276.334 652.398 276.334C652.398 276.334 654.79 273.42 651.681 269.274C651.681 269.274 655.508 260.815 649.634 260.398C649.634 260.398 648.403 253.365 642.973 254.437C642.991 254.454 639.323 248.129 628.623 250.034Z" fill="white" stroke="#C8D4E8" stroke-miterlimit="10" stroke-linejoin="round"/>
<path d="M663.921 180.168C663.921 180.168 661.759 187.609 653.84 190.001" stroke="#C8D4E8" stroke-miterlimit="10" stroke-linecap="round" stroke-linejoin="round"/>
<path d="M665.755 190.214L655.586 194.572L666.685 197.486" stroke="#C8D4E8" stroke-miterlimit="10" stroke-linecap="round" stroke-linejoin="round"/>
<path d="M683.605 187.663C683.605 187.663 689.966 187.282 688.079 194.909" stroke="#C8D4E8" stroke-miterlimit="10" stroke-linecap="round" stroke-linejoin="round"/>
<path d="M445.685 345.19V189.222H406.185L302.145 345.19V398.03H389.151V443.951H445.685V398.322H477.017V345.199H445.685V345.19ZM389.151 345.19H363.356L389.151 305.345V345.19Z" fill="#0539DB"/>
<path d="M436.829 345.19V189.222H397.33L293.289 345.19V398.03H380.295V443.951H436.829V398.322H468.161V345.199H436.829V345.19ZM380.295 345.19H354.5L380.295 305.345V345.19Z" fill="#3457E5"/>
<path d="M976.734 345.19V189.222H937.235L833.203 345.19V398.03H920.209V443.951H976.743V398.322H1008.08V345.199H976.734V345.19ZM920.201 345.19H894.405L920.201 305.345V345.19Z" fill="#CFD7E8" stroke="#C8D4E8" stroke-miterlimit="10" stroke-linecap="round" stroke-linejoin="round"/>
<path d="M967.875 345.19V189.222H928.376L824.344 345.19V398.03H911.35V443.951H967.884V398.322H999.216V345.199H967.875V345.19ZM911.341 345.19H885.546L911.341 305.345V345.19Z" fill="white" stroke="#C8D4E8" stroke-miterlimit="10" stroke-linejoin="round"/>
<path d="M623.855 181.107C605.146 181.107 589.98 196.273 589.98 214.982C589.98 233.69 605.146 248.856 623.855 248.856C642.563 248.856 657.729 233.69 657.729 214.982C657.729 196.273 642.563 181.107 623.855 181.107ZM623.855 244.391C607.617 244.391 594.454 231.228 594.454 214.99C594.454 198.753 607.617 185.59 623.855 185.59C640.092 185.59 653.255 198.753 653.255 214.99C653.255 231.228 640.101 244.391 623.855 244.391Z" fill="#CFD7E8" stroke="#C8D4E8" stroke-miterlimit="10" stroke-linecap="round" stroke-linejoin="round"/>
<path d="M434.91 459.055V488.89C434.91 490.325 436.071 491.485 437.506 491.485H529.49C530.925 491.485 532.086 490.325 532.086 488.89V449.762C532.086 449.213 531.953 448.682 531.705 448.195L510.392 407.225C509.843 406.162 508.744 405.497 507.548 405.497H472.248C470.476 405.497 469.041 406.932 469.041 408.704V456.459H437.515C436.071 456.459 434.91 457.62 434.91 459.055Z" fill="#EBF0F7" stroke="#C8D4E8" stroke-miterlimit="10" stroke-linecap="round" stroke-linejoin="round"/>
<path d="M532.074 451.029H506.474C504.879 451.029 503.595 452.322 503.595 453.908V464.848C503.595 468.188 500.893 470.89 497.553 470.89C496.535 470.89 495.542 470.633 494.648 470.145L492.894 469.18L469.021 456.468H437.494C436.059 456.468 434.898 457.629 434.898 459.064V488.898C434.898 490.333 436.059 491.494 437.494 491.494H529.479C530.914 491.494 532.074 490.333 532.074 488.898V451.029V451.029Z" fill="white" stroke="#C8D4E8" stroke-miterlimit="10" stroke-linecap="round" stroke-linejoin="round"/>
<path d="M509.582 436.183L503.045 442.72C502.443 443.322 501.468 443.322 500.866 442.72C500.263 442.118 500.263 441.143 500.866 440.541L507.403 434.003C508.006 433.401 508.98 433.401 509.582 434.003C510.185 434.606 510.185 435.58 509.582 436.183Z" fill="#CFD7E8" stroke="#C8D4E8" stroke-miterlimit="10" stroke-linecap="round" stroke-linejoin="round"/>
<path d="M507.035 438.725L505.582 440.178L512.842 447.438L514.295 445.985L507.035 438.725Z" fill="#CFD7E8" stroke="#C8D4E8" stroke-miterlimit="10" stroke-linecap="round" stroke-linejoin="round"/>
<path d="M527.132 439.425H514.712C513.516 439.425 512.551 440.39 512.551 441.586V448.983C512.551 451.508 514.597 453.545 517.113 453.545H532.083V449.762C532.083 449.213 531.95 448.682 531.702 448.195L527.132 439.425Z" fill="#CFD7E8" stroke="#C8D4E8" stroke-miterlimit="10" stroke-linecap="round" stroke-linejoin="round"/>
<path d="M491.381 459.055H479.369C478.527 459.055 477.854 458.373 477.854 457.54V451.215C477.854 450.374 477.172 449.7 476.339 449.7H470.546C469.704 449.7 469.031 450.383 469.031 451.215V456.459V467.656C469.031 468.498 469.713 469.171 470.546 469.171H491.381C492.222 469.171 492.896 468.489 492.896 467.656V460.57C492.896 459.737 492.222 459.055 491.381 459.055Z" fill="#CFD7E8" stroke="#C8D4E8" stroke-miterlimit="10" stroke-linecap="round" stroke-linejoin="round"/>
<path d="M535.157 484.62H532.074V396.807C532.074 395.957 532.765 395.266 533.616 395.266C534.466 395.266 535.157 395.957 535.157 396.807V484.62Z" fill="#CFD7E8" stroke="#C8D4E8" stroke-miterlimit="10" stroke-linecap="round" stroke-linejoin="round"/>
<path d="M532.48 484.124V482.033C532.48 481.759 532.702 481.537 532.977 481.537H572.024C572.874 481.537 573.565 482.228 573.565 483.079C573.565 483.929 572.874 484.62 572.024 484.62H532.977C532.702 484.62 532.48 484.399 532.48 484.124Z" fill="#CFD7E8" stroke="#C8D4E8" stroke-miterlimit="10" stroke-linecap="round" stroke-linejoin="round"/>
<path d="M460.074 504.126C467.163 504.126 472.91 498.379 472.91 491.29C472.91 484.201 467.163 478.455 460.074 478.455C452.985 478.455 447.238 484.201 447.238 491.29C447.238 498.379 452.985 504.126 460.074 504.126Z" fill="white" stroke="#C8D4E8" stroke-miterlimit="10" stroke-linecap="round" stroke-linejoin="round"/>
<path d="M460.073 496.942C463.195 496.942 465.725 494.412 465.725 491.29C465.725 488.169 463.195 485.639 460.073 485.639C456.952 485.639 454.422 488.169 454.422 491.29C454.422 494.412 456.952 496.942 460.073 496.942Z" fill="#CFD7E8" stroke="#C8D4E8" stroke-miterlimit="10" stroke-linecap="round" stroke-linejoin="round"/>
<path d="M512.453 504.126C519.542 504.126 525.289 498.379 525.289 491.29C525.289 484.201 519.542 478.455 512.453 478.455C505.364 478.455 499.617 484.201 499.617 491.29C499.617 498.379 505.364 504.126 512.453 504.126Z" fill="white" stroke="#C8D4E8" stroke-miterlimit="10" stroke-linecap="round" stroke-linejoin="round"/>
<path d="M512.452 496.942C515.574 496.942 518.104 494.412 518.104 491.29C518.104 488.169 515.574 485.639 512.452 485.639C509.331 485.639 506.801 488.169 506.801 491.29C506.801 494.412 509.331 496.942 512.452 496.942Z" fill="#CFD7E8" stroke="#C8D4E8" stroke-miterlimit="10" stroke-linecap="round" stroke-linejoin="round"/>
<path d="M999.207 327.394H979.719V344.225H999.207V327.394Z" fill="white" stroke="#C8D4E8" stroke-miterlimit="10" stroke-linecap="round" stroke-linejoin="round"/>
<path d="M999.207 327.394H994.777V344.225H999.207V327.394Z" fill="#EBF0F7" stroke="#C8D4E8" stroke-miterlimit="10" stroke-linecap="round" stroke-linejoin="round"/>
<path d="M988.577 327.394H979.719V344.225H988.577V327.394Z" fill="#CFD7E8" stroke="#C8D4E8" stroke-miterlimit="10" stroke-linecap="round" stroke-linejoin="round"/>
<path d="M989.463 317.65L979.719 327.394H999.207L989.463 317.65Z" stroke="#C8D4E8" stroke-miterlimit="10" stroke-linecap="round" stroke-linejoin="round"/>
<path d="M927.32 410.883V464.919" stroke="#C8D4E8" stroke-miterlimit="10" stroke-linecap="round" stroke-linejoin="round"/>
<path d="M946.809 411.326V465.362" stroke="#C8D4E8" stroke-miterlimit="10" stroke-linecap="round" stroke-linejoin="round"/>
<path d="M927.32 414.427H946.809" stroke="#C8D4E8" stroke-miterlimit="10" stroke-linecap="round" stroke-linejoin="round"/>
<path d="M927.32 423.285H946.809" stroke="#C8D4E8" stroke-miterlimit="10" stroke-linecap="round" stroke-linejoin="round"/>
<path d="M927.32 432.143H946.809" stroke="#C8D4E8" stroke-miterlimit="10" stroke-linecap="round" stroke-linejoin="round"/>
<path d="M927.32 441.001H946.809" stroke="#C8D4E8" stroke-miterlimit="10" stroke-linecap="round" stroke-linejoin="round"/>
<path d="M927.32 449.86H946.809" stroke="#C8D4E8" stroke-miterlimit="10" stroke-linecap="round" stroke-linejoin="round"/>
<path d="M927.32 458.718H946.809" stroke="#C8D4E8" stroke-miterlimit="10" stroke-linecap="round" stroke-linejoin="round"/>
<path d="M927.32 358.274V412.309" stroke="#C8D4E8" stroke-miterlimit="10" stroke-linecap="round" stroke-linejoin="round"/>
<path d="M946.809 358.717V412.752" stroke="#C8D4E8" stroke-miterlimit="10" stroke-linecap="round" stroke-linejoin="round"/>
<path d="M927.32 361.817H946.809" stroke="#C8D4E8" stroke-miterlimit="10" stroke-linecap="round" stroke-linejoin="round"/>
<path d="M927.32 370.675H946.809" stroke="#C8D4E8" stroke-miterlimit="10" stroke-linecap="round" stroke-linejoin="round"/>
<path d="M927.32 379.534H946.809" stroke="#C8D4E8" stroke-miterlimit="10" stroke-linecap="round" stroke-linejoin="round"/>
<path d="M927.32 388.392H946.809" stroke="#C8D4E8" stroke-miterlimit="10" stroke-linecap="round" stroke-linejoin="round"/>
<path d="M927.32 397.25H946.809" stroke="#C8D4E8" stroke-miterlimit="10" stroke-linecap="round" stroke-linejoin="round"/>
<path d="M927.32 406.109H946.809" stroke="#C8D4E8" stroke-miterlimit="10" stroke-linecap="round" stroke-linejoin="round"/>
<path d="M927.32 306.612V360.648" stroke="#C8D4E8" stroke-miterlimit="10" stroke-linecap="round" stroke-linejoin="round"/>
<path d="M946.809 307.055V361.091" stroke="#C8D4E8" stroke-miterlimit="10" stroke-linecap="round" stroke-linejoin="round"/>
<path d="M927.32 310.156H946.809" stroke="#C8D4E8" stroke-miterlimit="10" stroke-linecap="round" stroke-linejoin="round"/>
<path d="M927.32 319.014H946.809" stroke="#C8D4E8" stroke-miterlimit="10" stroke-linecap="round" stroke-linejoin="round"/>
<path d="M927.32 327.872H946.809" stroke="#C8D4E8" stroke-miterlimit="10" stroke-linecap="round" stroke-linejoin="round"/>
<path d="M927.32 336.73H946.809" stroke="#C8D4E8" stroke-miterlimit="10" stroke-linecap="round" stroke-linejoin="round"/>
<path d="M927.32 345.589H946.809" stroke="#C8D4E8" stroke-miterlimit="10" stroke-linecap="round" stroke-linejoin="round"/>
<path d="M927.32 354.447H946.809" stroke="#C8D4E8" stroke-miterlimit="10" stroke-linecap="round" stroke-linejoin="round"/>
<path d="M699.024 357.379C700.628 354.784 702.231 352.188 703.835 349.584C706.253 345.66 708.671 341.726 711.072 337.811C708.157 333.736 705.562 326.216 706.014 312.361C706.147 308.171 706.395 304.566 706.713 301.412C706.306 302.103 705.943 303.104 705.677 304.486C704.056 312.884 703.392 321.467 703.684 330.016C703.843 334.675 704.136 339.051 701.354 343.099C692.115 356.555 669.03 357.29 654.618 357.317C641.082 357.344 627.476 356.511 614.295 353.419C609.998 352.41 605.746 351.169 601.406 350.461C601.14 351.028 600.865 351.568 600.582 352.064C600.591 352.073 641.091 369.524 699.024 357.379Z" fill="#0539DB"/>
<path d="M336.444 413.178V404.461H328.791C328.339 402.61 327.613 400.873 326.647 399.297L332.06 393.884L325.894 387.719L320.482 393.131C318.896 392.166 317.169 391.439 315.317 390.987V383.334H306.601V390.987C304.749 391.439 303.013 392.166 301.428 393.131L296.015 387.719L289.85 393.884L295.262 399.297C294.297 400.882 293.57 402.61 293.118 404.461H285.465V413.178H293.118C293.57 415.029 294.297 416.765 295.262 418.351L289.85 423.763L296.015 429.929L301.428 424.516C303.013 425.482 304.749 426.208 306.601 426.66V434.313H315.317V426.66C317.169 426.208 318.905 425.482 320.482 424.516L325.894 429.929L332.06 423.763L326.647 418.351C327.613 416.765 328.339 415.029 328.791 413.178H336.444ZM319.853 408.819C319.853 409.652 319.738 410.458 319.525 411.22C319.33 411.911 319.056 412.566 318.71 413.169C317.913 414.586 316.735 415.764 315.317 416.561C314.706 416.907 314.042 417.182 313.36 417.376C312.589 417.589 311.792 417.704 310.959 417.704C310.126 417.704 309.32 417.589 308.558 417.376C307.868 417.182 307.212 416.907 306.601 416.561C305.183 415.764 304.005 414.586 303.208 413.169C302.863 412.557 302.588 411.902 302.393 411.211C302.18 410.449 302.065 409.643 302.065 408.81C302.065 407.978 302.18 407.172 302.393 406.41C302.588 405.719 302.863 405.063 303.208 404.452C304.005 403.026 305.183 401.857 306.601 401.059C307.212 400.714 307.868 400.439 308.558 400.253C309.32 400.032 310.126 399.917 310.959 399.917C311.792 399.917 312.598 400.032 313.36 400.244C314.051 400.439 314.706 400.714 315.317 401.059C316.735 401.857 317.913 403.035 318.71 404.452C319.056 405.063 319.33 405.719 319.525 406.41C319.738 407.18 319.853 407.987 319.853 408.819Z" fill="#EBF0F7" stroke="#C8D4E8" stroke-miterlimit="10" stroke-linecap="round" stroke-linejoin="round"/>
<path d="M899.516 461.137H788.008V476.86H899.516V461.137Z" fill="white" stroke="#C8D4E8" stroke-miterlimit="10" stroke-linejoin="round"/>
<path d="M815.885 461.137H788.008V476.86H815.885V461.137Z" fill="white" stroke="#C8D4E8" stroke-miterlimit="10" stroke-linejoin="round"/>
<path d="M843.76 461.137H815.883V476.86H843.76V461.137Z" fill="#C8D4E8" stroke="#C8D4E8" stroke-miterlimit="10"/>
<path d="M899.515 461.137H871.328V476.86H899.515V461.137Z" fill="#C8D4E8" stroke="#C8D4E8" stroke-miterlimit="10"/>
<path d="M810.598 477.507V524.314" stroke="#C8D4E8" stroke-miterlimit="10"/>
<path d="M877.973 477.507V524.314" stroke="#C8D4E8" stroke-miterlimit="10"/>
<path d="M318.224 396.914V384.22H307.08C306.425 381.527 305.362 379.002 303.962 376.699L311.846 368.815L302.864 359.833L294.98 367.717C292.676 366.317 290.152 365.254 287.459 364.599V353.455H274.765V364.599C272.072 365.254 269.539 366.317 267.235 367.717L259.351 359.833L250.378 368.815L258.262 376.699C256.862 379.002 255.799 381.527 255.144 384.22H244V396.914H255.144C255.799 399.607 256.862 402.14 258.262 404.443L250.378 412.327L259.351 421.301L267.235 413.417C269.539 414.816 272.072 415.879 274.765 416.535V427.679H287.459V416.535C290.152 415.879 292.676 414.816 294.98 413.417L302.864 421.301L311.846 412.327L303.962 404.443C305.362 402.14 306.425 399.607 307.08 396.914H318.224ZM294.067 390.571C294.067 391.785 293.899 392.963 293.589 394.07C293.305 395.071 292.907 396.028 292.402 396.914C291.241 398.978 289.523 400.696 287.459 401.857C286.564 402.362 285.608 402.76 284.607 403.044C283.49 403.354 282.321 403.522 281.107 403.522C279.894 403.522 278.725 403.354 277.617 403.044C276.607 402.76 275.66 402.362 274.765 401.857C272.701 400.696 270.982 398.978 269.822 396.914C269.317 396.028 268.918 395.071 268.635 394.061C268.325 392.954 268.157 391.785 268.157 390.571C268.157 389.358 268.325 388.188 268.635 387.072C268.918 386.062 269.317 385.106 269.822 384.22C270.982 382.147 272.701 380.437 274.765 379.277C275.66 378.772 276.607 378.373 277.617 378.099C278.725 377.78 279.894 377.611 281.107 377.611C282.321 377.611 283.49 377.78 284.607 378.09C285.608 378.373 286.564 378.772 287.459 379.277C289.523 380.437 291.241 382.147 292.402 384.22C292.907 385.106 293.305 386.062 293.589 387.072C293.899 388.188 294.067 389.358 294.067 390.571Z" fill="#EBF0F7" stroke="#C8D4E8" stroke-miterlimit="10" stroke-linecap="round" stroke-linejoin="round"/>
<path d="M752.372 551.56H748.252V564H746.532V551.56H742.412V550H752.372V551.56ZM754.652 549.06H756.372V555.36H756.532C756.799 554.747 757.232 554.233 757.832 553.82C758.432 553.393 759.166 553.18 760.032 553.18C760.926 553.18 761.672 553.393 762.272 553.82C762.872 554.233 763.312 554.787 763.592 555.48C763.886 556.16 764.032 556.9 764.032 557.7V564H762.312V557.92C762.312 556.88 762.039 556.087 761.492 555.54C760.959 554.993 760.246 554.72 759.352 554.72C758.499 554.72 757.786 555.007 757.212 555.58C756.652 556.153 756.372 556.933 756.372 557.92V564H754.652V549.06ZM771.397 564.14C770.317 564.14 769.404 563.88 768.657 563.36C767.924 562.84 767.377 562.16 767.017 561.32C766.657 560.48 766.477 559.593 766.477 558.66C766.477 557.713 766.657 556.827 767.017 556C767.377 555.16 767.93 554.48 768.677 553.96C769.424 553.44 770.337 553.18 771.417 553.18C772.83 553.18 773.957 553.653 774.797 554.6C775.65 555.547 776.077 556.907 776.077 558.68V559.16H768.197V559.3C768.197 559.887 768.33 560.44 768.597 560.96C768.864 561.48 769.237 561.9 769.717 562.22C770.197 562.54 770.75 562.7 771.377 562.7C772.057 562.7 772.644 562.527 773.137 562.18C773.63 561.833 773.997 561.367 774.237 560.78H775.937C775.657 561.74 775.13 562.54 774.357 563.18C773.597 563.82 772.61 564.14 771.397 564.14ZM774.377 557.94C774.324 556.74 774.03 555.873 773.497 555.34C772.964 554.807 772.264 554.54 771.397 554.54C770.45 554.54 769.697 554.853 769.137 555.48C768.577 556.107 768.277 556.927 768.237 557.94H774.377ZM787.987 550C789.12 550 790.047 550.227 790.767 550.68C791.5 551.133 792.027 551.707 792.347 552.4C792.667 553.093 792.827 553.827 792.827 554.6C792.827 555.373 792.667 556.107 792.347 556.8C792.027 557.48 791.507 558.047 790.787 558.5C790.067 558.94 789.133 559.16 787.987 559.16H784.907V564H783.227V550H787.987ZM787.767 557.66C788.727 557.66 789.527 557.433 790.167 556.98C790.82 556.513 791.147 555.72 791.147 554.6C791.147 553.493 790.82 552.713 790.167 552.26C789.527 551.793 788.727 551.56 787.767 551.56H784.907V557.66H787.767ZM798.786 564.14C797.852 564.14 797.052 563.9 796.386 563.42C795.732 562.94 795.232 562.287 794.886 561.46C794.539 560.633 794.366 559.7 794.366 558.66C794.366 557.62 794.539 556.687 794.886 555.86C795.246 555.02 795.759 554.367 796.426 553.9C797.106 553.42 797.912 553.18 798.846 553.18C799.779 553.18 800.532 553.4 801.106 553.84C801.679 554.28 802.112 554.807 802.406 555.42H802.546V553.46H804.286V564H802.546V561.84H802.406C802.086 562.467 801.632 563.007 801.046 563.46C800.459 563.913 799.706 564.14 798.786 564.14ZM799.326 562.66C800.352 562.66 801.139 562.28 801.686 561.52C802.232 560.747 802.506 559.793 802.506 558.66C802.506 557.527 802.232 556.58 801.686 555.82C801.139 555.047 800.352 554.66 799.326 554.66C798.272 554.66 797.472 555.04 796.926 555.8C796.392 556.56 796.126 557.507 796.126 558.64C796.126 559.787 796.392 560.747 796.926 561.52C797.472 562.28 798.272 562.66 799.326 562.66ZM811.99 568.22C811.59 568.22 811.263 568.193 811.01 568.14C810.77 568.087 810.523 568.013 810.27 567.92V566.48C810.443 566.533 810.676 566.58 810.97 566.62C811.263 566.673 811.55 566.7 811.83 566.7C812.87 566.7 813.65 566.407 814.17 565.82C814.703 565.233 814.97 564.453 814.97 563.48V561.58H814.81C814.53 562.207 814.076 562.74 813.45 563.18C812.836 563.607 812.09 563.82 811.21 563.82C810.33 563.82 809.556 563.593 808.89 563.14C808.223 562.687 807.703 562.06 807.33 561.26C806.97 560.447 806.79 559.52 806.79 558.48C806.79 557.44 806.97 556.52 807.33 555.72C807.703 554.907 808.223 554.273 808.89 553.82C809.556 553.367 810.33 553.14 811.21 553.14C812.13 553.14 812.896 553.38 813.51 553.86C814.136 554.327 814.576 554.873 814.83 555.5H814.97V553.48H816.71V563.48C816.71 564.227 816.556 564.96 816.25 565.68C815.956 566.4 815.456 567 814.75 567.48C814.043 567.973 813.123 568.22 811.99 568.22ZM811.77 562.34C812.45 562.34 813.03 562.16 813.51 561.8C813.99 561.427 814.343 560.947 814.57 560.36C814.81 559.76 814.93 559.12 814.93 558.44C814.93 557.773 814.81 557.153 814.57 556.58C814.343 556.007 813.99 555.54 813.51 555.18C813.043 554.82 812.463 554.64 811.77 554.64C810.743 554.64 809.956 555.013 809.41 555.76C808.876 556.493 808.61 557.387 808.61 558.44C808.61 559.133 808.723 559.78 808.95 560.38C809.19 560.967 809.543 561.44 810.01 561.8C810.49 562.16 811.076 562.34 811.77 562.34ZM824.288 564.14C823.208 564.14 822.294 563.88 821.548 563.36C820.814 562.84 820.268 562.16 819.908 561.32C819.548 560.48 819.368 559.593 819.368 558.66C819.368 557.713 819.548 556.827 819.908 556C820.268 555.16 820.821 554.48 821.568 553.96C822.314 553.44 823.228 553.18 824.308 553.18C825.721 553.18 826.848 553.653 827.688 554.6C828.541 555.547 828.968 556.907 828.968 558.68V559.16H821.088V559.3C821.088 559.887 821.221 560.44 821.488 560.96C821.754 561.48 822.128 561.9 822.608 562.22C823.088 562.54 823.641 562.7 824.268 562.7C824.948 562.7 825.534 562.527 826.028 562.18C826.521 561.833 826.888 561.367 827.128 560.78H828.828C828.548 561.74 828.021 562.54 827.248 563.18C826.488 563.82 825.501 564.14 824.288 564.14ZM827.268 557.94C827.214 556.74 826.921 555.873 826.388 555.34C825.854 554.807 825.154 554.54 824.288 554.54C823.341 554.54 822.588 554.853 822.028 555.48C821.468 556.107 821.168 556.927 821.128 557.94H827.268ZM839.857 564.02V558.94L835.297 550H837.177L840.657 557H840.797L844.257 550H846.137L841.597 558.94V564L839.857 564.02ZM850.812 564.14C849.745 564.14 848.838 563.887 848.092 563.38C847.358 562.86 846.805 562.187 846.432 561.36C846.058 560.52 845.872 559.62 845.872 558.66C845.872 557.7 846.058 556.807 846.432 555.98C846.805 555.14 847.358 554.467 848.092 553.96C848.838 553.44 849.745 553.18 850.812 553.18C851.878 553.18 852.778 553.44 853.512 553.96C854.258 554.467 854.812 555.14 855.172 555.98C855.545 556.82 855.732 557.713 855.732 558.66C855.732 559.607 855.545 560.5 855.172 561.34C854.798 562.18 854.238 562.86 853.492 563.38C852.758 563.887 851.865 564.14 850.812 564.14ZM850.812 562.66C851.465 562.66 852.032 562.48 852.512 562.12C853.005 561.76 853.378 561.28 853.632 560.68C853.885 560.067 854.012 559.387 854.012 558.64C854.012 557.493 853.725 556.54 853.152 555.78C852.578 555.02 851.798 554.64 850.812 554.64C850.145 554.64 849.565 554.82 849.072 555.18C848.592 555.54 848.225 556.027 847.972 556.64C847.718 557.24 847.592 557.907 847.592 558.64C847.592 559.787 847.878 560.747 848.452 561.52C849.025 562.28 849.812 562.66 850.812 562.66ZM867.426 564H865.686V562H865.566C865.286 562.613 864.853 563.133 864.266 563.56C863.693 563.973 862.986 564.18 862.146 564.18C861.266 564.18 860.533 563.967 859.946 563.54C859.359 563.113 858.926 562.56 858.646 561.88C858.379 561.2 858.246 560.46 858.246 559.66V553.46H859.966V559.44C859.966 560.467 860.226 561.26 860.746 561.82C861.266 562.367 861.946 562.64 862.786 562.64C863.666 562.64 864.366 562.347 864.886 561.76C865.419 561.16 865.686 560.387 865.686 559.44V553.46H867.426V564ZM887.756 562.44V564H879.496V550H881.236L881.216 562.44H887.756ZM894.542 564.14C893.475 564.14 892.569 563.887 891.822 563.38C891.089 562.86 890.535 562.187 890.162 561.36C889.789 560.52 889.602 559.62 889.602 558.66C889.602 557.7 889.789 556.807 890.162 555.98C890.535 555.14 891.089 554.467 891.822 553.96C892.569 553.44 893.475 553.18 894.542 553.18C895.609 553.18 896.509 553.44 897.242 553.96C897.989 554.467 898.542 555.14 898.902 555.98C899.275 556.82 899.462 557.713 899.462 558.66C899.462 559.607 899.275 560.5 898.902 561.34C898.529 562.18 897.969 562.86 897.222 563.38C896.489 563.887 895.595 564.14 894.542 564.14ZM894.542 562.66C895.195 562.66 895.762 562.48 896.242 562.12C896.735 561.76 897.109 561.28 897.362 560.68C897.615 560.067 897.742 559.387 897.742 558.64C897.742 557.493 897.455 556.54 896.882 555.78C896.309 555.02 895.529 554.64 894.542 554.64C893.875 554.64 893.295 554.82 892.802 555.18C892.322 555.54 891.955 556.027 891.702 556.64C891.449 557.24 891.322 557.907 891.322 558.64C891.322 559.787 891.609 560.747 892.182 561.52C892.755 562.28 893.542 562.66 894.542 562.66ZM906.437 564.14C905.37 564.14 904.463 563.887 903.717 563.38C902.983 562.86 902.43 562.187 902.057 561.36C901.683 560.52 901.497 559.62 901.497 558.66C901.497 557.7 901.683 556.807 902.057 555.98C902.43 555.14 902.983 554.467 903.717 553.96C904.463 553.44 905.37 553.18 906.437 553.18C907.503 553.18 908.403 553.44 909.137 553.96C909.883 554.467 910.437 555.14 910.797 555.98C911.17 556.82 911.357 557.713 911.357 558.66C911.357 559.607 911.17 560.5 910.797 561.34C910.423 562.18 909.863 562.86 909.117 563.38C908.383 563.887 907.49 564.14 906.437 564.14ZM906.437 562.66C907.09 562.66 907.657 562.48 908.137 562.12C908.63 561.76 909.003 561.28 909.257 560.68C909.51 560.067 909.637 559.387 909.637 558.64C909.637 557.493 909.35 556.54 908.777 555.78C908.203 555.02 907.423 554.64 906.437 554.64C905.77 554.64 905.19 554.82 904.697 555.18C904.217 555.54 903.85 556.027 903.597 556.64C903.343 557.24 903.217 557.907 903.217 558.64C903.217 559.787 903.503 560.747 904.077 561.52C904.65 562.28 905.437 562.66 906.437 562.66ZM913.931 549.06H915.671V557.46H915.751L919.751 553.46H921.711L917.051 558.2L921.911 564H919.931L915.751 558.86H915.671V564H913.931V549.06ZM924.324 553.46H926.044V564H924.324V553.46ZM925.164 551.5C924.844 551.5 924.577 551.393 924.364 551.18C924.15 550.953 924.044 550.687 924.044 550.38C924.044 550.073 924.15 549.813 924.364 549.6C924.577 549.373 924.844 549.26 925.164 549.26C925.484 549.26 925.75 549.373 925.964 549.6C926.19 549.813 926.304 550.073 926.304 550.38C926.304 550.687 926.19 550.953 925.964 551.18C925.75 551.393 925.484 551.5 925.164 551.5ZM929.242 553.46H930.962V555.36H931.122C931.389 554.747 931.822 554.233 932.422 553.82C933.022 553.393 933.756 553.18 934.622 553.18C935.516 553.18 936.262 553.393 936.862 553.82C937.462 554.233 937.902 554.787 938.182 555.48C938.476 556.16 938.622 556.9 938.622 557.7V564H936.902V557.92C936.902 556.88 936.629 556.087 936.082 555.54C935.549 554.993 934.849 554.72 933.982 554.72C933.062 554.72 932.329 555.02 931.782 555.62C931.236 556.207 930.962 556.973 930.962 557.92V564H929.242V553.46ZM946.267 568.22C945.867 568.22 945.54 568.193 945.287 568.14C945.047 568.087 944.8 568.013 944.547 567.92V566.48C944.72 566.533 944.954 566.58 945.247 566.62C945.54 566.673 945.827 566.7 946.107 566.7C947.147 566.7 947.927 566.407 948.447 565.82C948.98 565.233 949.247 564.453 949.247 563.48V561.58H949.087C948.807 562.207 948.354 562.74 947.727 563.18C947.114 563.607 946.367 563.82 945.487 563.82C944.607 563.82 943.834 563.593 943.167 563.14C942.5 562.687 941.98 562.06 941.607 561.26C941.247 560.447 941.067 559.52 941.067 558.48C941.067 557.44 941.247 556.52 941.607 555.72C941.98 554.907 942.5 554.273 943.167 553.82C943.834 553.367 944.607 553.14 945.487 553.14C946.407 553.14 947.174 553.38 947.787 553.86C948.414 554.327 948.854 554.873 949.107 555.5H949.247V553.48H950.987V563.48C950.987 564.227 950.834 564.96 950.527 565.68C950.234 566.4 949.734 567 949.027 567.48C948.32 567.973 947.4 568.22 946.267 568.22ZM946.047 562.34C946.727 562.34 947.307 562.16 947.787 561.8C948.267 561.427 948.62 560.947 948.847 560.36C949.087 559.76 949.207 559.12 949.207 558.44C949.207 557.773 949.087 557.153 948.847 556.58C948.62 556.007 948.267 555.54 947.787 555.18C947.32 554.82 946.74 554.64 946.047 554.64C945.02 554.64 944.234 555.013 943.687 555.76C943.154 556.493 942.887 557.387 942.887 558.44C942.887 559.133 943 559.78 943.227 560.38C943.467 560.967 943.82 561.44 944.287 561.8C944.767 562.16 945.354 562.34 946.047 562.34ZM960.338 551.56V556.18L966.198 556.14V557.56H960.338V564H958.598V550H966.958V551.56H960.338ZM973.116 564.14C972.05 564.14 971.143 563.887 970.396 563.38C969.663 562.86 969.11 562.187 968.736 561.36C968.363 560.52 968.176 559.62 968.176 558.66C968.176 557.7 968.363 556.807 968.736 555.98C969.11 555.14 969.663 554.467 970.396 553.96C971.143 553.44 972.05 553.18 973.116 553.18C974.183 553.18 975.083 553.44 975.816 553.96C976.563 554.467 977.116 555.14 977.476 555.98C977.85 556.82 978.036 557.713 978.036 558.66C978.036 559.607 977.85 560.5 977.476 561.34C977.103 562.18 976.543 562.86 975.796 563.38C975.063 563.887 974.17 564.14 973.116 564.14ZM973.116 562.66C973.77 562.66 974.336 562.48 974.816 562.12C975.31 561.76 975.683 561.28 975.936 560.68C976.19 560.067 976.316 559.387 976.316 558.64C976.316 557.493 976.03 556.54 975.456 555.78C974.883 555.02 974.103 554.64 973.116 554.64C972.45 554.64 971.87 554.82 971.376 555.18C970.896 555.54 970.53 556.027 970.276 556.64C970.023 557.24 969.896 557.907 969.896 558.64C969.896 559.787 970.183 560.747 970.756 561.52C971.33 562.28 972.116 562.66 973.116 562.66ZM980.471 553.46H982.191V555.14H982.311C982.484 554.673 982.791 554.28 983.231 553.96C983.684 553.627 984.251 553.46 984.931 553.46C985.144 553.46 985.311 553.473 985.431 553.5C985.564 553.513 985.711 553.547 985.871 553.6L985.811 555.28C985.597 555.213 985.411 555.167 985.251 555.14C985.104 555.113 984.911 555.1 984.671 555.1C983.017 555.1 982.191 556.08 982.191 558.04V564H980.471V553.46ZM992.271 550H994.011V564H992.271V550ZM1000.67 564.14C999.821 564.14 999.081 563.973 998.454 563.64C997.828 563.293 997.348 562.853 997.014 562.32C996.694 561.787 996.534 561.227 996.534 560.64V560.54H998.254V560.62C998.254 560.953 998.348 561.287 998.534 561.62C998.721 561.94 999.001 562.207 999.374 562.42C999.748 562.62 1000.2 562.72 1000.73 562.72C1001.37 562.72 1001.9 562.567 1002.31 562.26C1002.74 561.94 1002.95 561.507 1002.95 560.96C1002.95 560.507 1002.79 560.147 1002.45 559.88C1002.13 559.613 1001.73 559.44 1001.23 559.36L999.854 559.16C998.988 559.027 998.261 558.733 997.674 558.28C997.088 557.813 996.794 557.14 996.794 556.26C996.794 555.287 997.141 554.533 997.834 554C998.541 553.453 999.441 553.18 1000.53 553.18C1001.35 553.18 1002.04 553.333 1002.61 553.64C1003.2 553.933 1003.65 554.327 1003.95 554.82C1004.26 555.3 1004.41 555.827 1004.41 556.4V556.48H1002.69V556.44C1002.69 556.173 1002.62 555.893 1002.47 555.6C1002.34 555.307 1002.11 555.053 1001.77 554.84C1001.44 554.627 1001.01 554.52 1000.49 554.52C999.854 554.52 999.341 554.68 998.954 555C998.568 555.307 998.374 555.713 998.374 556.22C998.374 556.633 998.528 556.973 998.834 557.24C999.141 557.507 999.528 557.68 999.994 557.76L1001.49 558C1002.37 558.147 1003.11 558.453 1003.71 558.92C1004.31 559.373 1004.61 560.047 1004.61 560.94C1004.61 561.58 1004.44 562.14 1004.09 562.62C1003.76 563.1 1003.29 563.473 1002.69 563.74C1002.09 564.007 1001.42 564.14 1000.67 564.14Z" fill="#C8D4E8"/>
<path d="M1011.25 550H1014.47L1020.19 559.72H1020.23V550H1022.99V564.02H1019.75L1014.07 554.58H1014.01V564.02H1011.25V550ZM1029.99 564.16C1028.88 564.16 1027.95 563.913 1027.19 563.42C1026.44 562.913 1025.88 562.247 1025.51 561.42C1025.14 560.593 1024.95 559.687 1024.95 558.7C1024.95 557.713 1025.13 556.807 1025.49 555.98C1025.86 555.14 1026.43 554.467 1027.19 553.96C1027.95 553.453 1028.88 553.2 1029.99 553.2C1031.1 553.2 1032.03 553.453 1032.79 553.96C1033.55 554.453 1034.12 555.113 1034.49 555.94C1034.86 556.767 1035.05 557.673 1035.05 558.66C1035.05 559.647 1034.86 560.56 1034.49 561.4C1034.12 562.227 1033.55 562.893 1032.79 563.4C1032.03 563.907 1031.1 564.16 1029.99 564.16ZM1029.99 561.92C1030.76 561.92 1031.34 561.613 1031.73 561C1032.13 560.373 1032.33 559.593 1032.33 558.66C1032.33 557.727 1032.13 556.96 1031.73 556.36C1031.34 555.747 1030.76 555.44 1029.99 555.44C1029.22 555.44 1028.64 555.747 1028.25 556.36C1027.86 556.96 1027.67 557.727 1027.67 558.66C1027.67 559.593 1027.86 560.373 1028.25 561C1028.65 561.613 1029.23 561.92 1029.99 561.92ZM1040.97 555.6V560.3C1040.97 560.767 1040.99 561.113 1041.03 561.34C1041.08 561.567 1041.21 561.747 1041.43 561.88C1041.64 562.013 1041.99 562.08 1042.47 562.08C1042.75 562.08 1043.03 562.053 1043.33 562V563.92C1043.18 563.947 1042.91 563.98 1042.53 564.02C1042.15 564.06 1041.79 564.08 1041.43 564.08C1040.45 564.08 1039.73 563.94 1039.25 563.66C1038.78 563.367 1038.49 563.007 1038.37 562.58C1038.25 562.14 1038.19 561.58 1038.19 560.9V555.6H1036.43V553.44H1038.21V550H1040.97V553.44H1043.33V555.6H1040.97ZM1052.85 552.42V555.8H1058.23V557.96H1052.85V564H1050.07V550H1058.95V552.42H1052.85ZM1064.83 564.16C1063.73 564.16 1062.79 563.913 1062.03 563.42C1061.29 562.913 1060.73 562.247 1060.35 561.42C1059.98 560.593 1059.79 559.687 1059.79 558.7C1059.79 557.713 1059.97 556.807 1060.33 555.98C1060.71 555.14 1061.27 554.467 1062.03 553.96C1062.79 553.453 1063.73 553.2 1064.83 553.2C1065.94 553.2 1066.87 553.453 1067.63 553.96C1068.39 554.453 1068.96 555.113 1069.33 555.94C1069.71 556.767 1069.89 557.673 1069.89 558.66C1069.89 559.647 1069.71 560.56 1069.33 561.4C1068.96 562.227 1068.39 562.893 1067.63 563.4C1066.87 563.907 1065.94 564.16 1064.83 564.16ZM1064.83 561.92C1065.61 561.92 1066.19 561.613 1066.57 561C1066.97 560.373 1067.17 559.593 1067.17 558.66C1067.17 557.727 1066.97 556.96 1066.57 556.36C1066.19 555.747 1065.61 555.44 1064.83 555.44C1064.06 555.44 1063.48 555.747 1063.09 556.36C1062.71 556.96 1062.51 557.727 1062.51 558.66C1062.51 559.593 1062.71 560.373 1063.09 561C1063.49 561.613 1064.07 561.92 1064.83 561.92ZM1081.45 564H1078.67V562.32H1078.53C1078.29 562.84 1077.91 563.287 1077.39 563.66C1076.88 564.02 1076.26 564.2 1075.51 564.2C1074.16 564.2 1073.22 563.76 1072.67 562.88C1072.12 561.987 1071.85 560.987 1071.85 559.88V553.44H1074.61V559.42C1074.61 560.18 1074.78 560.787 1075.13 561.24C1075.48 561.68 1075.97 561.9 1076.61 561.9C1077.3 561.9 1077.82 561.667 1078.15 561.2C1078.5 560.733 1078.67 560.14 1078.67 559.42V553.44H1081.45V564ZM1083.8 553.44H1086.6V555.06H1086.74C1086.98 554.54 1087.37 554.1 1087.9 553.74C1088.44 553.367 1089.08 553.18 1089.84 553.18C1091.22 553.18 1092.18 553.62 1092.74 554.5C1093.32 555.38 1093.6 556.38 1093.6 557.5V564H1090.84V557.96C1090.84 557.187 1090.66 556.58 1090.28 556.14C1089.92 555.7 1089.41 555.48 1088.74 555.48C1088.04 555.48 1087.5 555.713 1087.14 556.18C1086.78 556.633 1086.6 557.227 1086.6 557.96V564H1083.8V553.44ZM1099.69 564.16C1098.36 564.16 1097.33 563.66 1096.59 562.66C1095.87 561.66 1095.51 560.34 1095.51 558.7C1095.51 557.02 1095.87 555.68 1096.59 554.68C1097.33 553.68 1098.37 553.18 1099.71 553.18C1100.62 553.18 1101.33 553.387 1101.83 553.8C1102.34 554.2 1102.7 554.627 1102.91 555.08H1103.07V548.98H1105.85V564H1103.07V562.18H1102.91C1102.67 562.673 1102.3 563.127 1101.79 563.54C1101.29 563.953 1100.59 564.16 1099.69 564.16ZM1100.69 561.96C1101.48 561.96 1102.07 561.64 1102.47 561C1102.87 560.36 1103.07 559.593 1103.07 558.7C1103.07 557.82 1102.87 557.06 1102.47 556.42C1102.07 555.78 1101.48 555.46 1100.69 555.46C1099.89 555.46 1099.29 555.78 1098.89 556.42C1098.51 557.047 1098.31 557.8 1098.31 558.68C1098.31 559.587 1098.51 560.36 1098.89 561C1099.29 561.64 1099.89 561.96 1100.69 561.96Z" fill="#3457E5"/>
<defs>
<linearGradient id="paint0_linear_134_717" x1="595.365" y1="444.707" x2="853.841" y2="241.954" gradientUnits="userSpaceOnUse">
<stop stop-color="#CFD7E8"/>
<stop offset="1" stop-color="#EBF0F7"/>
</linearGradient>
</defs>
</svg>
