<svg width="140" height="40" viewBox="0 0 140 40" fill="none" xmlns="http://www.w3.org/2000/svg">
<path d="M19.1239 0H18.7139C8.37721 0 0 8.34211 0 18.6354V39.9398H7.56582V18.6354C7.56582 12.5153 12.568 7.53412 18.7139 7.53412H19.1239C25.2697 7.53412 30.2719 12.5153 30.2719 18.6354V39.9398H37.8377V18.6354C37.8377 8.34211 29.4605 0 19.1239 0Z" fill="white"/>
<path d="M22.7018 39.94H15.136V18.8376C15.136 16.7574 16.8321 15.0684 18.9211 15.0684C21.01 15.0684 22.7061 16.7574 22.7061 18.8376V39.94H22.7018Z" fill="#12D3EB"/>
<path d="M58.6491 17.333V18.8501C56.9789 17.8874 55.041 17.333 52.9737 17.333C46.7026 17.333 41.6228 22.3916 41.6228 28.6363C41.6228 34.8811 46.7026 39.9396 52.9737 39.9396C55.041 39.9396 56.9789 39.3852 58.6491 38.4225V39.9396H64.3246V17.333H58.6491ZM52.9737 34.288C49.8446 34.288 47.2982 31.7523 47.2982 28.6363C47.2982 25.5204 49.8446 22.9847 52.9737 22.9847C56.1027 22.9847 58.6491 25.5204 58.6491 28.6363C58.6491 31.7523 56.1027 34.288 52.9737 34.288Z" fill="white"/>
<path d="M73.7851 17.333H68.1096V39.9396H73.7851V17.333Z" fill="white"/>
<path d="M70.9452 15.6394C72.5137 15.6394 73.7851 14.3732 73.7851 12.8114C73.7851 11.2495 72.5137 9.9834 70.9452 9.9834C69.3768 9.9834 68.1053 11.2495 68.1053 12.8114C68.1053 14.3732 69.3768 15.6394 70.9452 15.6394Z" fill="#12D3EB"/>
<path d="M87.0263 17.333C81.804 17.333 77.5658 21.5492 77.5658 26.7539V39.9396H83.2412V34.288V32.4055V26.7539C83.2412 24.678 84.9374 22.9847 87.0263 22.9847C89.1109 22.9847 90.8114 24.6737 90.8114 26.7539V32.4055V34.288V39.9396H96.4868V26.7539C96.4868 21.5492 92.2529 17.333 87.0263 17.333Z" fill="white"/>
<path d="M122.706 31.0855C122.883 30.2947 122.974 29.4781 122.974 28.6357C122.974 27.7934 122.883 26.9768 122.706 26.186C122.68 26.0613 122.65 25.9324 122.616 25.8078C121.355 20.934 116.91 17.3281 111.623 17.3281C106.336 17.3281 101.89 20.934 100.63 25.8078C100.6 25.9324 100.57 26.057 100.54 26.186C100.363 26.9768 100.272 27.7934 100.272 28.6357C100.272 29.4781 100.363 30.2947 100.54 31.0855C100.565 31.2101 100.596 31.3391 100.63 31.4637C101.89 36.3375 106.336 39.9434 111.623 39.9434C114.402 39.9434 116.949 38.9506 118.921 37.3002L115.27 32.968C114.286 33.7931 113.013 34.2917 111.623 34.2917C109.525 34.2917 107.691 33.1528 106.711 31.4637C106.638 31.3434 106.573 31.2144 106.513 31.0855H116.737H122.706ZM106.513 26.186C106.573 26.057 106.642 25.9324 106.711 25.8078C107.695 24.1187 109.525 22.9798 111.623 22.9798C113.72 22.9798 115.55 24.1187 116.534 25.8078C116.608 25.9281 116.672 26.057 116.733 26.186H106.513Z" fill="white"/>
<path d="M134.325 28.6923V22.2326H138.11V17.3331H134.325V10.0439H128.649V17.3331H124.864V22.2326H128.649V28.6966C128.649 34.9284 133.742 39.9999 140 39.9999V34.3482C136.871 34.3482 134.325 31.8125 134.325 28.6923Z" fill="white"/>
</svg>
