<svg width="682" height="558" viewBox="0 0 682 558" fill="none" xmlns="http://www.w3.org/2000/svg">
<path d="M80.5047 476.751H525.683C534.425 476.751 541.506 469.678 541.506 460.946V177.976C541.506 169.244 534.425 162.171 525.683 162.171H80.4947C71.7531 162.171 64.6719 169.244 64.6719 177.976V460.946C64.6819 469.668 71.7632 476.751 80.5047 476.751Z" fill="#EBF0F7" stroke="#C8D4E8" stroke-miterlimit="10" stroke-linejoin="round"/>
<path d="M86.5553 476.751H519.632C523.502 476.751 526.633 473.624 526.633 469.758V185.559C526.633 181.693 523.502 178.566 519.632 178.566H86.5553C82.6846 178.566 79.5541 181.693 79.5541 185.559V469.758C79.5541 473.614 82.6946 476.751 86.5553 476.751Z" fill="white" stroke="#C8D4E8" stroke-miterlimit="10" stroke-linejoin="round"/>
<path d="M40.8576 496.513H565.33C583.453 496.513 598.136 481.837 598.136 463.743C598.136 457.289 592.895 452.064 586.444 452.064H19.7539C13.2928 452.064 8.06183 457.299 8.06183 463.743C8.05182 481.847 22.7444 496.513 40.8576 496.513Z" fill="white" stroke="#C8D4E8" stroke-miterlimit="10" stroke-linejoin="round"/>
<path d="M139.675 375.684H481.505V433.511H139.675V375.684Z" fill="#DDE4F1"/>
<path d="M308.544 229.159H481.505V248.222H308.544V229.159Z" fill="#DDE4F1"/>
<path d="M124.612 229.159H297.572V248.222H124.612V229.159Z" fill="#DDE4F1"/>
<path d="M124.612 265.546H297.572V284.608H124.612V265.546Z" fill="#DDE4F1"/>
<path d="M124.612 301.922H297.572V320.985H124.612V301.922Z" fill="#DDE4F1"/>
<path d="M124.612 338.309H297.572V357.371H124.612V338.309Z" fill="#DDE4F1"/>
<path d="M7.61115 482.616H264.036C267.687 482.616 270.647 479.659 270.647 476.012V313.761C270.647 310.115 267.687 307.157 264.036 307.157H7.61115C3.96048 307.157 1 310.115 1 313.761V476.012C0.98999 479.659 3.9505 482.616 7.61115 482.616Z" fill="white" stroke="#C8D4E8" stroke-miterlimit="10" stroke-linejoin="round"/>
<path d="M23.8445 338.399H135.164V449.596H23.8445V338.399Z" fill="white" stroke="#C8D4E8" stroke-miterlimit="10" stroke-linejoin="round"/>
<path d="M189.933 352.875H253.475V368.771H189.933V352.875Z" fill="white" stroke="#C8D4E8" stroke-miterlimit="10" stroke-linejoin="round"/>
<path d="M154.987 383.537H253.475V399.432H154.987V383.537Z" fill="white" stroke="#C8D4E8" stroke-miterlimit="10" stroke-linejoin="round"/>
<path d="M154.987 414.509H253.475V449.606H154.987V414.509Z" fill="white" stroke="#C8D4E8" stroke-miterlimit="10" stroke-linejoin="round"/>
<path d="M308.544 273.878H481.505V357.371H308.544V273.878Z" fill="#DDE4F1"/>
<path d="M250.694 326.33C248.788 326.33 247.243 324.787 247.243 322.883C247.243 320.979 248.788 319.436 250.694 319.436C252.6 319.436 254.145 320.979 254.145 322.883C254.145 324.787 252.6 326.33 250.694 326.33Z" fill="white" stroke="#C8D4E8" stroke-miterlimit="10" stroke-linejoin="round"/>
<path d="M239.222 326.33C237.317 326.33 235.772 324.787 235.772 322.883C235.772 320.979 237.317 319.436 239.222 319.436C241.128 319.436 242.673 320.979 242.673 322.883C242.673 324.787 241.128 326.33 239.222 326.33Z" fill="white" stroke="#C8D4E8" stroke-miterlimit="10" stroke-linejoin="round"/>
<path d="M227.76 326.33C225.855 326.33 224.31 324.787 224.31 322.883C224.31 320.979 225.855 319.436 227.76 319.436C229.666 319.436 231.211 320.979 231.211 322.883C231.211 324.787 229.666 326.33 227.76 326.33Z" fill="white" stroke="#C8D4E8" stroke-miterlimit="10" stroke-linejoin="round"/>
<path d="M526.633 90.9963V271.081C526.633 275.986 530.614 279.952 535.514 279.952H671.818C676.889 279.952 681 275.846 681 270.781V76.3797C681 71.3144 676.889 67.2082 671.818 67.2082H550.437L526.633 90.9963Z" fill="white" stroke="#C8D4E8" stroke-miterlimit="10" stroke-linejoin="round"/>
<path d="M584.603 168.165H660.066V177.647H584.603V168.165Z" fill="white" stroke="#C8D4E8" stroke-miterlimit="10" stroke-linejoin="round"/>
<path d="M549.947 191.594H660.066V202.224H549.947V191.594Z" fill="white" stroke="#C8D4E8" stroke-miterlimit="10" stroke-linejoin="round"/>
<path d="M549.947 216.411H660.066V227.041H549.947V216.411Z" fill="white" stroke="#C8D4E8" stroke-miterlimit="10" stroke-linejoin="round"/>
<path d="M549.947 241.238H660.066V251.868H549.947V241.238Z" fill="white" stroke="#C8D4E8" stroke-miterlimit="10" stroke-linejoin="round"/>
<path d="M550.446 67.2082V85.851C550.446 88.7384 548.106 91.0762 545.215 91.0762H526.642L550.446 67.2082Z" stroke="#C8D4E8" stroke-miterlimit="10"/>
<path d="M594.525 157.675H654.605C657.616 157.675 660.066 155.237 660.066 152.22V92.2052C660.066 89.1979 657.626 86.7502 654.605 86.7502H594.525C591.514 86.7502 589.064 89.1879 589.064 92.2052V152.22C589.074 155.237 591.514 157.675 594.525 157.675Z" fill="white" stroke="#C8D4E8" stroke-miterlimit="10" stroke-linejoin="round"/>
<path d="M219.971 167.367H265.459C268.759 167.367 271.43 164.7 271.43 161.403V115.965C271.43 112.668 268.759 110 265.459 110H219.971C216.67 110 214 112.668 214 115.965V161.403C213.99 164.7 216.67 167.367 219.971 167.367Z" fill="white" stroke="#C8D4E8" stroke-miterlimit="10" stroke-linejoin="round"/>
<path d="M189.082 0H242.511C267.876 0 293.23 0 318.595 0C324.726 0 329.687 4.96543 329.687 11.0798V38.7543C329.687 44.8787 324.716 49.8341 318.595 49.8341H294.81V62.4625L281.958 49.8341H189.092C182.961 49.8341 178 44.8687 178 38.7543V11.0798C177.99 4.96543 182.961 0 189.082 0Z" fill="#CFD7E8"/>
<path d="M346.56 158.574C346.56 158.574 341.269 164.199 339.058 164.419C336.848 164.639 332.147 164.419 332.147 164.419L342.269 149.962C342.269 149.962 341.349 145.516 333.987 141.82C326.626 138.133 318.445 138.223 318.445 138.223L282.048 185.07C282.048 185.07 280.408 195.39 291.05 196.05C301.682 196.709 343.089 195.1 343.089 195.1L346.56 158.574Z" fill="#3457E5"/>
<path d="M333.987 141.82C341.348 145.506 342.269 149.962 342.269 149.962C339.938 153.609 331.097 150.951 325.556 148.044C320.015 145.136 317.114 139.941 318.444 138.223C318.444 138.223 326.626 138.133 333.987 141.82Z" fill="#0539DB"/>
<path d="M330.946 176.178C328.936 181.193 321.095 182.043 321.815 179.964C322.535 177.886 332.137 164.419 332.137 164.419C332.137 164.419 333.167 164.469 334.497 164.489C333.827 167.176 332.407 172.541 330.946 176.178Z" fill="#0539DB"/>
<path d="M343.079 195.11C343.079 195.11 320.885 195.97 304.822 196.17C305.822 194.341 308.073 192.613 310.773 192.073C317.014 190.844 329.177 182.322 333.437 178.256C337.698 174.19 343.489 162.451 343.489 162.451C343.489 162.451 344.919 161.971 346.27 161.531L343.079 195.11Z" fill="#0539DB"/>
<path d="M366.193 128.472C366.193 128.472 361.182 129.041 359.692 131.689C358.212 134.336 354.321 139.452 349.01 139.642C343.689 139.831 340.629 142.769 340.629 142.769L330.947 145.376C330.947 145.376 324.676 142.968 324.876 141.26C325.076 139.552 328.817 136.395 328.817 136.395C328.817 136.395 336.528 128.082 337.348 124.016C338.168 119.95 343.989 111.018 350.38 108.86C356.772 106.702 364.803 108.37 365.133 108.73C365.463 109.09 369.714 125.245 369.714 125.245L366.193 128.472Z" fill="white" stroke="#C8D4E8" stroke-miterlimit="10" stroke-linejoin="round"/>
<path d="M341.788 145.996L337.868 150.811C337.868 150.811 325.095 149.203 321.775 143.708L327.656 136.325C327.956 135.945 328.586 135.975 328.826 136.384C330.046 138.423 333.647 143.128 340.628 142.759C340.628 142.759 341.578 143.138 342.048 144.087C342.348 144.717 342.228 145.456 341.788 145.996Z" fill="white" stroke="#C8D4E8" stroke-miterlimit="10" stroke-linejoin="round"/>
<path d="M362.712 113.585C362.712 113.585 358.741 114.944 355.481 114.145L345.269 120.279L347.299 136.075L364.482 124.835L362.712 113.585Z" fill="#292C38"/>
<path d="M423.463 524.467L425.514 526.835V544.539C425.514 544.539 420.833 544.349 419.863 548.326C418.893 552.302 412.981 560.225 386.207 557.407C374.105 556.138 372.624 555.519 376.735 547.946C376.735 547.946 339.959 550.933 332.387 546.787C332.387 546.787 334.028 539.254 342.609 538.774C351.201 538.295 350.791 535.457 358.352 530.532C365.913 525.606 374.095 519.932 374.095 519.932L417.242 517.054L423.463 524.467Z" fill="#CFD7E8"/>
<path d="M370.423 545.288C377.374 540.623 376.804 527.505 367.632 524.348C371.383 521.81 374.104 519.922 374.104 519.922L415.591 517.154C419.402 521.72 422.372 526.106 422.372 526.106C422.372 526.106 402.109 526.506 396.187 527.714C390.256 528.923 392.907 532.85 387.386 538.594C381.875 544.339 376.734 547.936 376.734 547.936C376.734 547.936 339.958 550.923 332.386 546.777C332.386 546.777 362.241 550.773 370.423 545.288Z" fill="#292C38"/>
<path d="M386.196 557.397C377.885 556.528 374.584 555.958 374.664 553.231C376.534 554.819 397.928 555.659 406.99 554.46C416.051 553.251 417.852 549.634 419.422 543.58C420.202 540.573 422.942 539.324 425.503 538.824V544.519C425.503 544.519 420.822 544.329 419.852 548.305C418.882 552.282 412.981 560.215 386.196 557.397Z" fill="#292C38"/>
<path d="M409.04 148.034C409.04 148.034 441.166 158.734 443.206 163.09C445.246 167.446 444.966 189.216 438.465 205.871C431.964 222.525 430.074 234.854 419.462 238.82L428.073 284.998L423.642 287.266C423.642 287.266 417.691 346.032 421.142 368.331C424.593 390.621 430.324 421.482 429.173 446.289C428.023 471.097 425.503 526.825 425.503 526.825C425.503 526.825 396.398 519.332 388.746 527.485C388.746 527.485 380.025 522.799 370.753 522.969C370.753 522.969 365.572 518.263 365.572 516.025C365.572 513.797 372.113 501.049 372.113 501.049C372.113 501.049 373.734 439.146 371.163 414.728C368.593 390.311 351.55 293.83 344.048 284.238C344.048 284.238 341.228 289.034 342.158 294.589L335.587 292.501C335.587 292.501 343.858 237.611 341.498 219.848C339.138 202.084 338.037 177.227 340.018 168.175C341.998 159.114 347.109 156.766 350.18 154.438C353.25 152.11 366.202 152.44 366.202 152.44L409.04 148.034Z" fill="#3457E5"/>
<path d="M353.041 174.509L360.202 171.202L356.041 162.83L408.33 148.104L409.07 148.034C409.21 148.084 411.661 148.903 415.191 150.152L402.679 170.363H393.118L398.148 179.735L356.311 228.56C356.311 228.56 354.671 239.46 353.551 242.207C352.43 244.955 351.97 257.633 356.451 256.974C379.065 253.627 419.472 238.81 419.472 238.81L420.842 246.154C406.01 245.094 403.269 247.392 385.266 259.092C351.95 280.742 349.91 273.388 349.37 276.615C348.82 279.852 354.431 296.187 354.431 296.187C394.668 299.305 423.663 287.266 423.663 287.266C423.663 287.266 423.523 288.674 423.293 291.142C408.88 297.207 369.823 306.848 369.823 306.848C369.823 306.848 383.996 352.136 389.977 407.665C395.958 463.194 390.477 519.472 390.477 519.472C395.968 518.033 412.991 521.45 425.613 525.057C425.563 526.196 425.533 526.825 425.533 526.825C425.533 526.825 396.428 519.332 388.777 527.485C388.777 527.485 380.055 522.799 370.784 522.969C370.784 522.969 365.603 518.263 365.603 516.025C365.603 515.795 365.673 515.466 365.793 515.046C374.794 515.875 385.486 518.333 384.356 515.715C382.526 511.449 372.144 501.049 372.144 501.049C372.144 501.049 373.764 439.146 371.194 414.728C368.623 390.311 351.58 293.83 344.079 284.238C344.079 284.238 341.258 289.034 342.189 294.589L339.088 293.6C341.869 275.357 350.53 236.912 350.53 236.912L353.041 174.509Z" fill="#0539DB"/>
<path d="M404.15 139.642C404.15 139.642 408.01 139.612 410.241 143.398C412.471 147.185 412.741 149.832 412.741 149.832L401.829 169.144L392.028 171.202L395.978 178.226L351.71 229.039L354.421 173.261L360.332 169.014L356.041 162.83C356.041 162.83 359.312 153.269 363.643 151.551C367.973 149.832 370.194 150.192 370.194 150.192L404.15 139.642Z" fill="#3457E5"/>
<path d="M393.318 78.0981C402.119 78.4778 405.06 85.0817 404.89 87.3996C404.89 87.3996 412.331 86.7302 413.561 91.4059C414.792 96.0816 409.471 104.594 409.471 104.594C409.471 104.594 406.44 116.323 403.66 117.562C400.879 118.801 361.852 104.034 361.852 104.034C361.852 104.034 355.691 100.717 355.481 98.4494C355.281 96.1815 357.352 91.9154 360.912 90.5966C364.473 89.2679 364.993 84.8919 368.464 83.673C371.944 82.4541 378.005 83.2134 378.005 83.2134C378.005 83.2134 382.486 77.6286 393.318 78.0981Z" fill="#292C38"/>
<path d="M387.177 94.4331C387.177 94.4331 383.846 96.5112 378.395 96.2015C372.944 95.8918 369.193 93.9935 365.713 95.7619C362.232 97.5303 362.232 99.2187 362.232 104.973C362.232 110.728 361.512 127.972 363.662 131.189C365.813 134.406 368.133 136.964 372.134 138.293V152.68C372.134 152.68 382.256 153.898 383.706 153.529C385.156 153.159 404.89 143.308 404.89 143.308L400.739 122.867C400.739 122.867 406.1 120.03 405.38 112.836C404.66 105.643 398.308 111.128 398.108 113.026C398.108 113.026 390.347 104.504 387.997 102.805C385.656 101.097 387.177 94.4331 387.177 94.4331Z" fill="white" stroke="#C8D4E8" stroke-miterlimit="10" stroke-linejoin="round"/>
<path d="M402.119 118.301C402.429 116.952 401.079 117.342 399.829 117.042C398.578 116.753 400.279 114.345 401.709 111.947C402.349 110.868 403.599 110.538 404.779 110.498C405.069 111.058 405.289 111.807 405.389 112.836C406.11 120.03 400.749 122.867 400.749 122.867C399.478 121.728 401.809 119.65 402.119 118.301Z" fill="#C8D4E8"/>
<path d="M372.143 138.293C376.144 138.952 382.245 138.003 384.615 136.634C384.615 136.634 379.284 144.977 372.143 145.366V138.293Z" fill="#C8D4E8"/>
<path d="M378.665 121.438C375.202 121.438 372.394 118.168 372.394 114.135C372.394 110.101 375.202 106.832 378.665 106.832C382.129 106.832 384.937 110.101 384.937 114.135C384.937 118.168 382.129 121.438 378.665 121.438Z" stroke="#C8D4E8" stroke-miterlimit="10"/>
<path d="M360.921 121.438C357.458 121.438 354.65 118.168 354.65 114.135C354.65 110.101 357.458 106.832 360.921 106.832C364.385 106.832 367.192 110.101 367.192 114.135C367.192 118.168 364.385 121.438 360.921 121.438Z" stroke="#C8D4E8" stroke-miterlimit="10"/>
<path d="M394.127 108.74L383.005 108.86" stroke="#C8D4E8" stroke-miterlimit="10"/>
<path d="M373.233 110.499C373.233 110.499 370.223 109.649 366.192 110.189" stroke="#C8D4E8" stroke-miterlimit="10"/>
<path d="M354.961 222.256C355.131 222.256 355.301 222.166 355.391 222.016C355.651 221.587 381.215 178.626 387.816 167.766C392.617 159.853 399.449 151.981 403.109 147.755C404.599 146.046 405.58 144.907 405.87 144.428C406.47 143.438 406.3 142.389 405.93 141.75C405.59 141.141 405.04 140.781 404.449 140.781C404.039 140.781 403.639 140.961 403.289 141.29C397.848 146.476 379.995 151.002 376.535 151.131H376.374C373.494 151.131 372.644 148.214 372.604 148.084C372.544 147.864 372.344 147.715 372.124 147.715C372.104 147.715 372.084 147.715 372.064 147.715C370.073 147.964 368.853 150.502 366.853 158.565C364.962 166.188 354.561 221.117 354.461 221.667C354.421 221.906 354.551 222.136 354.771 222.226C354.841 222.236 354.901 222.256 354.961 222.256Z" fill="white"/>
<path d="M404.469 141.26C404.209 141.26 403.929 141.37 403.649 141.63C398.098 146.925 380.035 151.481 376.574 151.61C376.514 151.61 376.454 151.61 376.394 151.61C373.084 151.61 372.143 148.204 372.143 148.204C370.443 148.413 369.263 150.981 367.353 158.674C365.442 166.377 354.96 221.756 354.96 221.756C354.96 221.756 380.705 178.496 387.386 167.496C394.067 156.506 404.459 145.776 405.449 144.147C406.229 142.869 405.459 141.26 404.469 141.26ZM404.469 140.261C405.239 140.261 405.949 140.721 406.379 141.48C406.929 142.459 406.909 143.678 406.309 144.667C406.009 145.166 405.179 146.126 403.499 148.064C399.838 152.28 393.037 160.133 388.256 168.005C381.655 178.875 356.091 221.826 355.83 222.256C355.65 222.565 355.31 222.745 354.97 222.745C354.85 222.745 354.73 222.725 354.62 222.685C354.17 222.515 353.9 222.046 353.99 221.566C354.42 219.308 364.502 166.067 366.392 158.434C368.483 150.012 369.743 147.494 372.033 147.205C372.073 147.195 372.113 147.195 372.153 147.195C372.603 147.195 372.994 147.494 373.114 147.934C373.144 148.034 373.904 150.611 376.394 150.611C376.444 150.611 376.484 150.611 376.534 150.611C379.845 150.492 397.708 145.916 402.959 140.91C403.519 140.371 404.089 140.261 404.469 140.261Z" fill="#C8D4E8"/>
<path d="M374.714 152.969C375.225 153.019 377.105 155.017 377.415 157.155C377.725 159.293 373.624 166.747 373.624 166.747L372.144 192.922L354.961 221.746L361.392 188.157C361.392 188.157 369.934 169.394 370.894 166.996C371.844 164.599 370.214 157.835 371.034 156.016C371.854 154.198 374.714 152.969 374.714 152.969Z" fill="#292C38"/>
<path d="M434.835 164.419C434.835 164.419 416.292 168.545 397.348 207.469L381.115 220.697C381.115 220.697 391.617 214.962 404.44 213.254C417.262 211.545 423.663 216.701 423.663 216.701C423.663 216.701 424.793 204.742 407.12 208.528C407.12 208.528 412.141 189.695 426.664 181.503C426.664 181.503 424.093 178.356 419.482 179.045C419.472 179.045 423.583 170.094 434.835 164.419Z" fill="#0539DB"/>
<path d="M358.761 228.06C358.761 228.06 360.402 226.142 360.942 228.06C361.482 229.978 361.082 244.665 358.761 250.26C356.441 255.855 355.931 257.243 354.961 252.318C353.991 247.392 354.961 244.455 354.961 244.455L358.761 228.06Z" fill="#0539DB"/>
<path d="M378.915 244.695C377.706 244.695 376.725 244.14 376.725 243.456C376.725 242.772 377.706 242.217 378.915 242.217C380.125 242.217 381.105 242.772 381.105 243.456C381.105 244.14 380.125 244.695 378.915 244.695Z" fill="white"/>
<path d="M358.761 228.06C358.761 228.06 360.531 234.524 358.761 240.199C356.991 245.874 355.901 246.383 355.901 246.383L347.899 245.005C347.899 245.005 346.899 243.736 346.759 239.949C346.619 236.163 350.029 226.841 350.029 226.841L358.761 228.06Z" fill="white" stroke="#C8D4E8" stroke-miterlimit="10" stroke-linejoin="round"/>
<path d="M367.834 247.472C366.558 247.472 365.524 246.851 365.524 246.084C365.524 245.317 366.558 244.695 367.834 244.695C369.109 244.695 370.144 245.317 370.144 246.084C370.144 246.851 369.109 247.472 367.834 247.472Z" fill="white"/>
<path d="M312.133 186.528L330.946 243.456L284.468 233.855L264.565 175.548L312.133 186.528Z" fill="#CFD7E8" stroke="#C8D4E8" stroke-miterlimit="10" stroke-linejoin="round"/>
<path d="M350.169 227.671C350.169 227.671 343.288 228.24 340.218 224.513C337.147 220.787 335.717 218.899 329.656 217.51C323.585 216.121 321.684 215.432 321.684 215.432L324.005 222.465C324.005 222.465 318.264 223.784 312.943 221.756C307.622 219.718 299.821 216.411 296.11 218.839C294.95 219.598 299.18 220.917 300.341 222.755C301.501 224.583 302.321 226.861 303.541 229.819C304.771 232.786 310.492 238.021 316.283 239.41C322.074 240.798 334.707 238.85 338.097 239.41C341.478 239.969 347.639 241.488 348.319 240.669C349.009 239.849 351.06 233.345 350.169 227.671Z" fill="white" stroke="#C8D4E8" stroke-miterlimit="10" stroke-linejoin="round"/>
<path d="M250.106 136.795L254.697 151.881C254.977 152.791 254.287 153.71 253.337 153.71H232.093C231.143 153.71 230.453 152.791 230.733 151.881L235.323 136.795C235.493 136.236 235.593 135.666 235.633 135.077L236.134 126.635C235.563 126.635 235.273 127.963 235.273 127.963L230.893 127.304C230.893 127.304 230.893 123.368 233.083 120.301C235.263 117.253 238.774 117.253 238.774 117.253C238.774 118.342 240.964 119.431 242.715 119.431V119.411C244.465 119.411 246.655 118.322 246.655 117.233C246.655 117.233 250.156 117.233 252.346 120.301C254.537 123.368 254.537 127.304 254.537 127.304L250.156 127.963C250.156 127.963 249.866 126.635 249.296 126.635L249.796 135.097C249.836 135.666 249.936 136.246 250.106 136.795Z" fill="#DDE4F1"/>
<path d="M32.3652 222.675H112.849C118.24 222.675 122.621 218.309 122.621 212.914V132.518C122.621 127.133 118.25 122.757 112.849 122.757H32.3652C26.9743 122.757 22.5935 127.123 22.5935 132.518V212.914C22.6035 218.309 26.9743 222.675 32.3652 222.675Z" fill="#F7F8FA" stroke="#C8D4E8" stroke-miterlimit="10" stroke-linejoin="round"/>
<path d="M71.9426 137.444H72.6127C89.5957 137.444 103.368 151.191 103.368 168.165V203.283H90.936V168.165C90.936 158.075 82.7145 149.872 72.6228 149.872H71.9527C61.8509 149.872 53.6394 158.085 53.6394 168.165V203.283H41.2073V168.165C41.1873 151.191 54.9497 137.444 71.9426 137.444Z" fill="#3457E5"/>
<path d="M66.051 203.273H78.4932V168.495C78.4932 165.068 75.7127 162.281 72.2721 162.281C68.8415 162.281 66.051 165.058 66.051 168.495V203.273Z" fill="#12D3EB"/>
<path d="M644.495 136.395C642.545 136.395 640.964 134.816 640.964 132.868C640.964 130.92 642.545 129.341 644.495 129.341C646.445 129.341 648.025 130.92 648.025 132.868C648.025 134.816 646.445 136.395 644.495 136.395Z" fill="#292C38"/>
<path d="M640.023 135.696C650.255 135.696 653.585 134.567 653.725 131.04C653.905 126.634 650.025 124.736 646.044 123.157C644.304 122.468 642.133 121.389 639.833 120.25C636.982 118.831 634.032 117.372 631.502 116.443C627.311 114.915 618.209 114.835 616.419 114.835H616.189C615.839 114.845 607.857 115.025 605.177 116.034C603.137 116.793 601.576 118.941 600.546 120.36C600.176 120.869 599.856 121.319 599.626 121.529C597.335 123.697 595.235 128.842 597.025 132.289C598.406 134.936 604.557 135.016 615.719 135.166C619.649 135.216 624.11 135.276 629.141 135.456C633.812 135.616 637.263 135.696 640.023 135.696C640.013 135.696 640.013 135.696 640.023 135.696Z" fill="white"/>
<path d="M616.419 115.344C616.269 115.344 616.189 115.344 616.189 115.344C616.189 115.344 607.977 115.524 605.347 116.503C602.716 117.482 600.886 121.019 599.976 121.888C597.866 123.886 595.785 128.801 597.475 132.049C599.166 135.296 610.378 134.266 629.171 134.946C633.462 135.106 637.042 135.196 640.013 135.196C650.035 135.196 653.095 134.157 653.215 131.019C653.375 126.953 649.765 125.165 645.854 123.626C641.943 122.078 635.862 118.571 631.331 116.922C627.191 115.404 617.989 115.344 616.419 115.344ZM616.419 114.345C618.219 114.345 627.401 114.425 631.671 115.983C634.222 116.912 637.182 118.381 640.053 119.81C642.343 120.949 644.504 122.018 646.224 122.697C649.295 123.906 654.425 125.934 654.215 131.059C654.045 135.405 649.295 136.195 640.013 136.195C637.252 136.195 633.802 136.115 629.131 135.945C624.11 135.765 619.659 135.705 615.729 135.655C603.997 135.495 598.106 135.425 596.595 132.508C594.695 128.861 596.885 123.436 599.296 121.159C599.486 120.979 599.806 120.539 600.156 120.06C601.226 118.591 602.836 116.373 605.017 115.564C607.777 114.535 615.839 114.345 616.189 114.335L616.419 114.345Z" fill="#C8D4E8"/>
<path d="M627.381 116.023C628.882 116.243 630.272 116.533 631.332 116.922C634.723 118.161 638.973 120.429 642.544 122.148C639.123 122.607 633.452 122.727 630.252 120.249C626.671 117.472 622.28 116.223 622.28 116.223L627.381 116.023Z" fill="#292C38"/>
<path d="M613.499 116.733C616.379 116.623 619.92 116.163 625.871 119.09C631.822 122.018 631.822 123.287 631.282 123.496C630.752 123.706 617.459 122.877 612.188 122.297C606.918 121.718 604.627 121.298 604.507 119.5C604.387 117.702 604.747 117.072 613.499 116.733Z" fill="#292C38"/>
<path d="M644.105 123.556C644.105 123.556 637.834 123.287 637.303 123.626C636.773 123.966 643.195 127.782 649.626 126.713C649.626 126.713 649.766 125.944 644.105 123.556Z" fill="#DDE4F1"/>
<path d="M640.023 135.696C650.255 135.696 653.586 134.567 653.726 131.04C653.766 130.041 653.596 129.122 653.206 128.292C653.146 128.163 653.036 128.063 652.896 128.023C652.846 128.013 652.796 128.003 652.746 128.003C652.656 128.003 652.566 128.023 652.486 128.073C651.895 128.422 650.685 128.852 648.295 128.852C648.065 128.852 647.815 128.852 647.565 128.842C644.864 128.752 642.994 127.723 641.003 126.624C638.873 125.455 636.673 124.246 633.422 124.246H633.092C632.632 124.256 632.152 124.266 631.652 124.266C625.331 124.266 616.389 123.397 611.708 122.338C610.028 121.958 607.828 121.758 605.187 121.758C602.727 121.758 600.446 121.928 599.306 122.028C599.176 122.038 599.066 122.098 598.976 122.188C597.106 124.256 595.325 129.032 597.026 132.289C598.406 134.936 604.557 135.016 615.719 135.166C619.65 135.216 624.111 135.276 629.141 135.456C633.812 135.616 637.263 135.696 640.023 135.696C640.013 135.696 640.013 135.696 640.023 135.696Z" fill="white"/>
<path d="M605.197 122.248C602.816 122.248 600.606 122.407 599.356 122.517C597.466 124.595 595.945 129.111 597.476 132.049C599.166 135.296 610.378 134.266 629.171 134.946C633.462 135.106 637.042 135.196 640.013 135.196C650.035 135.196 653.095 134.157 653.215 131.019C653.255 130.06 653.085 129.231 652.745 128.492C652.015 128.931 650.685 129.341 648.294 129.341C648.054 129.341 647.804 129.341 647.544 129.331C641.753 129.141 639.503 124.735 633.422 124.735C633.322 124.735 633.212 124.735 633.102 124.735C632.642 124.745 632.152 124.755 631.652 124.755C625.32 124.755 616.269 123.876 611.598 122.817C609.718 122.377 607.377 122.248 605.197 122.248ZM605.197 121.248C607.887 121.248 610.118 121.448 611.828 121.838C616.479 122.897 625.37 123.756 631.662 123.756C632.152 123.756 632.632 123.746 633.092 123.736C633.202 123.736 633.322 123.736 633.432 123.736C636.812 123.736 639.073 124.975 641.253 126.184C643.184 127.243 645.014 128.252 647.584 128.332C647.834 128.342 648.074 128.342 648.294 128.342C650.575 128.342 651.695 127.962 652.225 127.633C652.385 127.543 652.555 127.493 652.735 127.493C652.835 127.493 652.935 127.503 653.035 127.533C653.305 127.613 653.525 127.812 653.645 128.072C654.065 128.971 654.246 129.98 654.205 131.049C654.035 135.395 649.285 136.185 640.003 136.185C637.243 136.185 633.792 136.105 629.121 135.935C624.1 135.755 619.649 135.695 615.719 135.645C603.987 135.485 598.096 135.415 596.585 132.498C594.765 129.001 596.595 124.066 598.616 121.838C598.786 121.648 599.016 121.538 599.266 121.518C600.416 121.418 602.716 121.248 605.197 121.248Z" fill="#C8D4E8"/>
<path d="M602.286 132.268C611.008 134.636 635.422 133.337 645.124 132.658C650.185 132.308 652.325 131.249 653.205 130.33C653.225 130.55 653.225 130.78 653.215 131.019C653.055 135.086 647.954 135.635 629.171 134.946C610.378 134.266 599.176 135.296 597.475 132.048C597.225 131.569 597.055 131.069 596.965 130.58C598.225 131.069 599.936 131.629 602.286 132.268Z" fill="#DDE4F1"/>
<path d="M636.163 137.803C633.622 137.803 631.562 135.746 631.562 133.207C631.562 130.669 633.622 128.612 636.163 128.612C638.704 128.612 640.764 130.669 640.764 133.207C640.764 135.746 638.704 137.803 636.163 137.803Z" fill="#292C38"/>
<path d="M636.163 135.835C634.71 135.835 633.533 134.659 633.533 133.207C633.533 131.756 634.71 130.58 636.163 130.58C637.615 130.58 638.793 131.756 638.793 133.207C638.793 134.659 637.615 135.835 636.163 135.835Z" fill="white"/>
<path d="M603.007 137.803C600.466 137.803 598.406 135.746 598.406 133.207C598.406 130.669 600.466 128.612 603.007 128.612C605.548 128.612 607.607 130.669 607.607 133.207C607.607 135.746 605.548 137.803 603.007 137.803Z" fill="#292C38"/>
<path d="M603.007 135.835C601.554 135.835 600.377 134.659 600.377 133.207C600.377 131.756 601.554 130.58 603.007 130.58C604.459 130.58 605.637 131.756 605.637 133.207C605.637 134.659 604.459 135.835 603.007 135.835Z" fill="white"/>
<path d="M64.9923 425.059H112.101V364.784C112.101 360.988 109.02 357.921 105.229 357.921H71.8635C68.0628 357.921 64.9923 360.998 64.9923 364.784V425.059Z" fill="#DDE4F1"/>
<path d="M44.8987 425.059H64.9922V380.63H49.5595C46.979 380.63 44.8987 382.718 44.8987 385.286V425.059Z" fill="#CFD7E8"/>
<path d="M116.061 425.059H41.4175" stroke="#C8D4E8" stroke-miterlimit="10" stroke-linecap="round" stroke-linejoin="round"/>
<path d="M98.5977 371.738H78.7441" stroke="#F7F8FA" stroke-miterlimit="10" stroke-linecap="round" stroke-linejoin="round"/>
<path d="M98.5977 383.587H78.7441" stroke="#F7F8FA" stroke-miterlimit="10" stroke-linecap="round" stroke-linejoin="round"/>
<path d="M98.5977 395.436H78.7441" stroke="#F7F8FA" stroke-miterlimit="10" stroke-linecap="round" stroke-linejoin="round"/>
<path d="M98.5977 407.285H78.7441" stroke="#F7F8FA" stroke-miterlimit="10" stroke-linecap="round" stroke-linejoin="round"/>
<path d="M314.253 16.8445H202.213" stroke="white" stroke-miterlimit="10" stroke-linecap="round"/>
<path d="M314.253 31.2313H202.213" stroke="white" stroke-miterlimit="10" stroke-linecap="round"/>
</svg>
